<svg width="222" height="151" viewBox="0 0 222 151" fill="none" xmlns="http://www.w3.org/2000/svg">
<path d="M221.444 130.392H0.556244V130.502H221.444V130.392Z" fill="#E3E5E6"/>
<path d="M199.311 137.499H184.679V137.609H199.311V137.499Z" fill="#E3E5E6"/>
<path d="M146.881 138.701H143.042V138.812H146.881V138.701Z" fill="#E3E5E6"/>
<path d="M184.237 133.399H175.76V133.51H184.237V133.399Z" fill="#E3E5E6"/>
<path d="M42.8121 134.142H23.7318V134.252H42.8121V134.142Z" fill="#E3E5E6"/>
<path d="M49.5447 134.142H46.7482V134.252H49.5447V134.142Z" fill="#E3E5E6"/>
<path d="M100.022 136.006H58.6364V136.116H100.022V136.006Z" fill="#E3E5E6"/>
<path d="M195.962 144.009V122.22H185.907V102.018H184.489V113.597H180.624V110.394H173.661V99.3055H172.376V85.7563H171.342V99.0625H168.895V118.77H164.252V99.0625H155.871V115.731H147.075V95.5283H145.657V107.107H141.792V103.904H134.829V92.8158H133.544V79.2666H132.51V92.5684H130.063V112.28H125.419V92.5684H117.043V111.635H111.393V100.547H110.103V86.9977H109.069V100.304H106.622V120.012H101.979V100.304H93.6028V120.012H89.4767V122.22H82.2492V102.018H80.8311V113.597H76.9656V110.394H70.0032V99.3055H68.7132V85.7563H67.6839V99.0625H65.4353V97.9493H57.0548V99.0625H52.4162V97.9493H49.9687V84.6474H48.935V98.1967H47.645V109.285H40.687V112.488H36.8171V100.909H35.399V121.112H25.3442V144.009H195.962Z" fill="#E3E5E6"/>
<path d="M70.3419 26.3852C75.1363 21.5908 75.1363 13.8174 70.3419 9.023C65.5474 4.22856 57.7741 4.22856 52.9797 9.023C48.1852 13.8174 48.1852 21.5908 52.9797 26.3852C57.7741 31.1796 65.5474 31.1796 70.3419 26.3852Z" fill="#F7F9FA"/>
<path d="M50.459 21.0597C50.4591 20.7052 50.3764 20.3556 50.2175 20.0388C50.0585 19.7219 49.8278 19.4466 49.5436 19.2347C49.2594 19.0228 48.9297 18.8803 48.5806 18.8184C48.2316 18.7565 47.873 18.7771 47.5333 18.8783C47.635 18.1936 47.5877 17.495 47.3946 16.8302C47.2016 16.1654 46.8673 15.5501 46.4147 15.0263C45.962 14.5026 45.4017 14.0827 44.7719 13.7953C44.1421 13.508 43.4577 13.36 42.7654 13.3614C42.4665 13.3607 42.1683 13.3891 41.875 13.4462C41.4003 12.6648 40.6843 12.059 39.835 11.7204C38.9858 11.3818 38.0494 11.3287 37.1673 11.5692C36.2852 11.8097 35.5053 12.3306 34.9454 13.0534C34.3855 13.7762 34.076 14.6615 34.0636 15.5757H34.0165C32.9869 15.5757 31.9994 15.9847 31.2714 16.7127C30.5433 17.4408 30.1343 18.4282 30.1343 19.4578C30.1343 20.4874 30.5433 21.4749 31.2714 22.2029C31.9994 22.9309 32.9869 23.34 34.0165 23.34H48.2682C48.8582 23.3191 49.4168 23.0695 49.8257 22.6438C50.2347 22.2181 50.4618 21.6499 50.459 21.0597Z" fill="#F2F4F5"/>
<path d="M193.82 52.5929C193.822 52.2378 193.741 51.8872 193.583 51.5693C193.424 51.2515 193.193 50.9755 192.908 50.7635C192.623 50.5516 192.293 50.4097 191.943 50.3493C191.593 50.289 191.234 50.3119 190.894 50.4162C190.927 50.1837 190.942 49.9491 190.941 49.7143C190.941 49.0816 190.817 48.455 190.574 47.8706C190.332 47.2861 189.977 46.7551 189.529 46.3079C189.082 45.8607 188.55 45.5061 187.966 45.2644C187.381 45.0227 186.754 44.8987 186.122 44.8993C185.825 44.8996 185.528 44.9264 185.236 44.9794C184.761 44.198 184.045 43.5922 183.196 43.2536C182.347 42.915 181.41 42.8619 180.528 43.1024C179.646 43.3429 178.866 43.8638 178.306 44.5866C177.746 45.3094 177.437 46.1947 177.424 47.1089H177.354C176.324 47.1089 175.337 47.5179 174.609 48.2459C173.881 48.974 173.472 49.9614 173.472 50.991C173.472 52.0206 173.881 53.0081 174.609 53.7361C175.337 54.4641 176.324 54.8732 177.354 54.8732H191.61C192.203 54.8548 192.765 54.6065 193.177 54.1808C193.59 53.7551 193.82 53.1856 193.82 52.5929Z" fill="#F2F4F5"/>
<path d="M126.42 18.0302C126.42 17.0756 126.799 16.16 127.474 15.485C128.149 14.81 129.064 14.4307 130.019 14.4307C130.369 14.4315 130.716 14.4839 131.051 14.5862C130.998 14.2195 130.971 13.8495 130.971 13.4791C130.969 12.3561 131.215 11.2466 131.692 10.23C132.169 9.21337 132.865 8.31476 133.73 7.59848C134.595 6.8822 135.607 6.36598 136.695 6.08675C137.782 5.80753 138.918 5.77221 140.021 5.98333C140.774 4.74939 141.906 3.79333 143.249 3.25918C144.592 2.72503 146.072 2.64171 147.467 3.02179C148.861 3.40186 150.094 4.22474 150.98 5.36646C151.866 6.50818 152.357 7.90691 152.379 9.35193H152.487C154.117 9.35193 155.679 9.9992 156.832 11.1513C157.984 12.3035 158.631 13.8661 158.631 15.4955C158.631 17.1249 157.984 18.6875 156.832 19.8397C155.679 20.9918 154.117 21.6391 152.487 21.6391H129.915C128.977 21.612 128.087 21.2196 127.434 20.5455C126.781 19.8713 126.417 18.9688 126.42 18.0302Z" fill="#F2F4F5"/>
<path d="M59.877 57.2374C59.8769 56.5621 60.0349 55.896 60.3382 55.2926C60.6416 54.6892 61.0818 54.1651 61.6239 53.7622C62.1659 53.3594 62.7947 53.0889 63.46 52.9724C64.1252 52.8559 64.8085 52.8967 65.4552 53.0915C65.3928 52.6498 65.3613 52.2042 65.3609 51.7582C65.3609 49.3253 66.3274 46.9921 68.0476 45.2719C69.7679 43.5516 72.1011 42.5852 74.5339 42.5852C75.1013 42.584 75.6676 42.636 76.2253 42.7407C77.1243 41.2449 78.4872 40.0838 80.1067 39.4338C81.7262 38.7837 83.5137 38.6805 85.1973 39.1396C86.881 39.5988 88.3685 40.5953 89.4338 41.9775C90.4991 43.3598 91.0838 45.0521 91.0989 46.7971H91.2308C93.1913 46.7971 95.0715 47.5759 96.4578 48.9622C97.8441 50.3485 98.6229 52.2287 98.6229 54.1892C98.6229 56.1497 97.8441 58.0299 96.4578 59.4162C95.0715 60.8025 93.1913 61.5813 91.2308 61.5813H64.0889C62.9587 61.5505 61.8853 61.0789 61.0982 60.2672C60.3112 59.4554 59.8728 58.3681 59.877 57.2374Z" fill="#F2F4F5"/>
<path d="M79.0143 27.8813C79.0143 27.5065 78.8654 27.1469 78.6003 26.8819C78.3353 26.6168 77.9757 26.4679 77.6009 26.4679C77.4638 26.467 77.3273 26.4861 77.1957 26.5245C77.2162 26.3809 77.2273 26.2361 77.2287 26.091C77.2287 25.6975 77.1512 25.3079 77.0006 24.9443C76.85 24.5808 76.6293 24.2505 76.3511 23.9722C76.0728 23.694 75.7425 23.4733 75.379 23.3227C75.0154 23.1721 74.6258 23.0946 74.2323 23.0946C74.0458 23.0951 73.8597 23.1124 73.6764 23.1464C73.3823 22.6596 72.9375 22.282 72.4094 22.0708C71.8813 21.8596 71.2988 21.8263 70.7501 21.976C70.2014 22.1257 69.7165 22.4502 69.3689 22.9003C69.0212 23.3504 68.8298 23.9016 68.8237 24.4703H68.7766C68.1368 24.4703 67.5233 24.7244 67.0709 25.1768C66.6185 25.6292 66.3644 26.2428 66.3644 26.8825C66.3644 27.5223 66.6185 28.1358 67.0709 28.5882C67.5233 29.0406 68.1368 29.2947 68.7766 29.2947H77.6386C78.0069 29.2849 78.3568 29.1316 78.6137 28.8676C78.8707 28.6036 79.0144 28.2497 79.0143 27.8813Z" fill="#F2F4F5"/>
<path d="M27.4865 70.8491C27.486 70.6286 27.5372 70.4111 27.6358 70.2139C27.7345 70.0167 27.8779 69.8453 28.0546 69.7135C28.2314 69.5816 28.4365 69.4929 28.6536 69.4545C28.8707 69.4161 29.0938 69.429 29.305 69.4922C29.2845 69.3486 29.2735 69.2038 29.2721 69.0588C29.2721 68.2641 29.5877 67.5019 30.1497 66.94C30.7116 66.3781 31.4738 66.0624 32.2685 66.0624C32.455 66.0628 32.641 66.0802 32.8244 66.1142C33.1185 65.6274 33.5633 65.2498 34.0914 65.0386C34.6194 64.8273 35.2019 64.7941 35.7506 64.9438C36.2993 65.0934 36.7842 65.4179 37.1319 65.8681C37.4795 66.3182 37.6709 66.8694 37.6771 67.4381H37.7195C38.0455 67.4237 38.3711 67.4755 38.6766 67.5903C38.9821 67.7051 39.2612 67.8807 39.497 68.1063C39.7328 68.3319 39.9205 68.603 40.0487 68.9031C40.177 69.2033 40.2431 69.5263 40.2431 69.8526C40.2431 70.179 40.177 70.502 40.0487 70.8021C39.9205 71.1023 39.7328 71.3733 39.497 71.599C39.2612 71.8246 38.9821 72.0001 38.6766 72.115C38.3711 72.2298 38.0455 72.2816 37.7195 72.2672H28.8622C28.4931 72.2573 28.1425 72.1035 27.8854 71.8384C27.6283 71.5734 27.4851 71.2183 27.4865 70.8491Z" fill="#F2F4F5"/>
<path d="M158.107 68.5779C158.106 68.3711 158.154 68.1672 158.247 67.9823C158.339 67.7974 158.474 67.6367 158.639 67.513C158.805 67.3894 158.997 67.3063 159.201 67.2702C159.404 67.2342 159.614 67.2463 159.812 67.3056C159.793 67.1709 159.782 67.0352 159.781 66.8991C159.781 66.5302 159.854 66.1648 159.995 65.8239C160.136 65.483 160.343 65.1733 160.604 64.9124C160.865 64.6515 161.174 64.4445 161.515 64.3033C161.856 64.1621 162.222 64.0895 162.591 64.0895C162.765 64.0899 162.94 64.1062 163.112 64.1381C163.388 63.6816 163.805 63.3275 164.3 63.1295C164.795 62.9314 165.341 62.9002 165.856 63.0405C166.37 63.1809 166.825 63.4852 167.151 63.9073C167.477 64.3293 167.656 64.8462 167.662 65.3794H167.702C168.008 65.3659 168.313 65.4145 168.599 65.5222C168.886 65.6299 169.148 65.7945 169.369 66.006C169.59 66.2176 169.766 66.4718 169.886 66.7532C170.006 67.0346 170.068 67.3375 170.068 67.6435C170.068 67.9496 170.006 68.2524 169.886 68.5339C169.766 68.8153 169.59 69.0695 169.369 69.2811C169.148 69.4926 168.886 69.6572 168.599 69.7649C168.313 69.8726 168.008 69.9212 167.702 69.9076H159.396C159.05 69.8984 158.722 69.7541 158.481 69.5056C158.239 69.2571 158.105 68.9241 158.107 68.5779Z" fill="#F7F9FA"/>
<path d="M111 150.342C158.306 150.342 196.656 148.103 196.656 145.341C196.656 142.579 158.306 140.34 111 140.34C63.6936 140.34 25.3442 142.579 25.3442 145.341C25.3442 148.103 63.6936 150.342 111 150.342Z" fill="#F7F9FA"/>
<path d="M128.402 149.903L127.319 150.095C126.948 150.161 126.567 150.076 126.259 149.861C125.95 149.645 125.74 149.315 125.675 148.945L115.511 91.4796L119.367 90.7976L129.523 148.219C129.556 148.403 129.552 148.591 129.511 148.773C129.471 148.955 129.395 149.127 129.289 149.28C129.182 149.433 129.046 149.563 128.889 149.663C128.732 149.763 128.556 149.832 128.373 149.864L128.402 149.903Z" fill="#202325"/>
<path d="M117.362 116.1C144.959 111.219 163.154 83.65 158.002 54.5233C152.851 25.3965 126.303 5.74138 98.7068 10.6223C71.1103 15.5032 52.915 43.0718 58.0666 72.1986C63.2181 101.325 89.7657 120.98 117.362 116.1Z" fill="#9E0000"/>
<path opacity="0.6" d="M117.362 116.1C144.959 111.219 163.154 83.65 158.002 54.5233C152.851 25.3965 126.303 5.74138 98.7068 10.6223C71.1103 15.5032 52.915 43.0718 58.0666 72.1986C63.2181 101.325 89.7657 120.98 117.362 116.1Z" fill="white"/>
<path d="M122.097 115.264C149.694 110.383 167.889 82.8141 162.738 53.6873C157.586 24.5606 131.038 4.90544 103.442 9.78635C75.8454 14.6673 57.6501 42.2359 62.8017 71.3627C67.9532 100.489 94.5008 120.145 122.097 115.264Z" fill="#9E0000"/>
<path opacity="0.7" d="M122.097 115.264C149.694 110.383 167.889 82.8141 162.738 53.6873C157.586 24.5606 131.038 4.90544 103.442 9.78635C75.8454 14.6673 57.6501 42.2359 62.8017 71.3627C67.9532 100.489 94.5008 120.145 122.097 115.264Z" fill="white"/>
<path d="M88.3926 88.9909L87.5339 90.2192L88.7614 91.079L94.2205 94.9028L95.4502 95.7641L96.3104 94.5336L113.945 69.3091L139.169 86.9433L140.398 87.802L141.257 86.5745L145.081 81.1154L145.942 79.8857L144.712 79.0254L119.487 61.3912L137.122 36.1666L137.98 34.9384L136.753 34.0786L131.294 30.2548L130.064 29.3935L129.204 30.624L111.57 55.8485L86.345 38.2142L85.1167 37.3556L84.2569 38.5831L80.4331 44.0422L79.5718 45.2719L80.8023 46.1321L106.027 63.7664L88.3926 88.9909Z" fill="#9E0000" stroke="#9E0000" stroke-width="3"/>
<path d="M42.0603 115.701V118.436L39.1188 117.851L38.4056 118.29L39.1188 119.58L37.7865 118.549L36.3915 118.755L35.8246 123.003L34.2755 121.696L31.6997 123.786L32.3894 125.059L30.8742 123.457L27.7081 126.443V123.747L25.7958 125.524L25.1872 130.592L28.8444 135.534L36.2844 135.795L45.5869 132.117C45.5869 132.117 46.7233 125.142 46.7233 124.988V119.763L44.1397 117.052L42.0603 115.701Z" fill="#9E0000"/>
<path opacity="0.3" d="M42.0603 115.701V118.436L39.1188 117.851L38.4056 118.29L39.1188 119.58L37.7865 118.549L36.3915 118.755L35.8246 123.003L34.2755 121.696L31.6997 123.786L32.3894 125.059L30.8742 123.457L27.7081 126.443V123.747L25.7958 125.524L25.1872 130.592L28.8444 135.534L36.2844 135.795L45.5869 132.117C45.5869 132.117 46.7233 125.142 46.7233 124.988V119.763L44.1397 117.052L42.0603 115.701Z" fill="#9E0000"/>
<path d="M57.3189 144.175C58.9778 144.883 61.2923 143.18 62.4861 140.372C63.68 137.564 63.309 134.719 61.6502 134.011C59.9914 133.303 57.6768 135.009 56.4804 137.814C55.2839 140.62 55.6653 143.467 57.3189 144.175Z" fill="#202325"/>
<path d="M50.9162 143.952C50.5398 144.115 50.1152 144.127 49.7302 143.985C48.1027 143.293 48.2568 139.268 50.0776 134.996C51.8984 130.725 54.6936 127.823 56.3211 128.518C56.6849 128.699 56.9653 129.014 57.1048 129.396C57.3008 129.382 57.4975 129.413 57.6795 129.487C57.8617 129.575 58.0247 129.698 58.1592 129.849C58.2937 130 58.397 130.176 58.4632 130.367C58.6652 130.348 58.8687 130.379 59.0562 130.456C59.2369 130.546 59.3978 130.671 59.5293 130.824C59.6607 130.977 59.7602 131.155 59.8216 131.347C60.027 131.321 60.2358 131.348 60.4277 131.425C60.6088 131.516 60.7692 131.643 60.8987 131.798C61.0282 131.954 61.124 132.135 61.1801 132.329C61.3885 132.293 61.6028 132.316 61.7992 132.395C63.1524 132.972 63.0244 136.313 61.5118 139.868C59.9993 143.424 57.6743 145.832 56.3211 145.255C56.1289 145.167 55.9638 145.029 55.843 144.855C55.6637 144.949 55.4671 145.005 55.2653 145.019C55.0635 145.034 54.8609 145.006 54.6701 144.939C54.4815 144.854 54.3179 144.721 54.1947 144.555C54.0137 144.644 53.8164 144.696 53.6149 144.708C53.4133 144.719 53.2115 144.689 53.0217 144.62C52.8364 144.539 52.674 144.414 52.5489 144.255C52.1783 144.423 51.7568 144.441 51.3733 144.304C51.1962 144.223 51.0399 144.102 50.9162 143.952Z" fill="#202325"/>
<path opacity="0.3" d="M50.9162 143.952C50.5398 144.115 50.1152 144.127 49.7302 143.985C48.1027 143.293 48.2568 139.268 50.0776 134.996C51.8984 130.725 54.6936 127.823 56.3211 128.518C56.6849 128.699 56.9653 129.014 57.1048 129.396C57.3008 129.382 57.4975 129.413 57.6795 129.487C57.8617 129.575 58.0247 129.698 58.1592 129.849C58.2937 130 58.397 130.176 58.4632 130.367C58.6652 130.348 58.8687 130.379 59.0562 130.456C59.2369 130.546 59.3978 130.671 59.5293 130.824C59.6607 130.977 59.7602 131.155 59.8216 131.347C60.027 131.321 60.2358 131.348 60.4277 131.425C60.6088 131.516 60.7692 131.643 60.8987 131.798C61.0282 131.954 61.124 132.135 61.1801 132.329C61.3885 132.293 61.6028 132.316 61.7992 132.395C63.1524 132.972 63.0244 136.313 61.5118 139.868C59.9993 143.424 57.6743 145.832 56.3211 145.255C56.1289 145.167 55.9638 145.029 55.843 144.855C55.6637 144.949 55.4671 145.005 55.2653 145.019C55.0635 145.034 54.8609 145.006 54.6701 144.939C54.4815 144.854 54.3179 144.721 54.1947 144.555C54.0137 144.644 53.8164 144.696 53.6149 144.708C53.4133 144.719 53.2115 144.689 53.0217 144.62C52.8364 144.539 52.674 144.414 52.5489 144.255C52.1783 144.423 51.7568 144.441 51.3733 144.304C51.1962 144.223 51.0399 144.102 50.9162 143.952Z" fill="#9E0000"/>
<path d="M33.8079 144.05C35.8276 144.913 38.0136 145.317 40.2082 145.232C42.4027 145.148 44.5512 144.577 46.4986 143.562C46.8561 143.371 47.2549 143.272 47.6598 143.272C48.0648 143.272 48.4635 143.371 48.821 143.562C48.8545 143.582 48.8894 143.599 48.9255 143.614C50.5791 144.317 53.4187 141.373 55.2656 137.034C57.1126 132.694 57.2719 128.609 55.6183 127.903C55.5817 127.888 55.5442 127.875 55.506 127.864C55.1247 127.74 54.78 127.524 54.5025 127.234C54.2249 126.945 54.0232 126.592 53.9151 126.205C53.2711 123.993 52.1211 121.96 50.5559 120.268C48.9908 118.577 47.0535 117.272 44.8973 116.459C43.9821 116.112 43.0343 115.858 42.0681 115.701L41.1224 116.098L43.9281 118.266L43.4735 118.63L43.9385 119.507L43.0112 118.94L41.9662 119.507L43.9307 123.747L39.9913 124.416L39.4871 125.2L40.7045 126.968L39.0744 125.531L37.5749 127.164L37.1621 132.331L35.822 130.678L33.1835 127.423H31.0127L30.4902 129.385V127.37L28.7321 126.968L26.334 130.43L25.8402 131.143L26.206 129.526L27.0289 125.868L26.6475 125.968L25.8402 126.179L26.4672 124.322L26.0832 124.223C25.2648 126.028 24.8156 127.979 24.7621 129.961C24.7085 131.943 25.0517 133.915 25.7714 135.763C26.491 137.61 27.5727 139.295 28.9528 140.718C30.3329 142.141 31.9836 143.274 33.8079 144.05Z" fill="#9E0000"/>
<path opacity="0.2" d="M48.8577 143.298C50.331 143.946 53.0035 141.112 54.8243 136.966C56.6451 132.82 56.9272 128.935 55.4538 128.288C53.9805 127.64 51.3107 130.474 49.482 134.62C47.6534 138.766 47.3921 142.65 48.8577 143.298Z" fill="#303437"/>
<path d="M41.193 139.23C41.2165 139.231 41.2396 139.223 41.2583 139.209C44.6753 136.667 51.7077 138.514 51.7913 138.533C51.8048 138.537 51.819 138.538 51.833 138.536C51.847 138.534 51.8605 138.53 51.8728 138.523C51.885 138.516 51.8956 138.506 51.904 138.495C51.9125 138.483 51.9186 138.471 51.9219 138.457C51.9291 138.429 51.9251 138.4 51.9109 138.376C51.8967 138.351 51.8734 138.334 51.8461 138.326C51.5614 138.25 45.0175 136.537 41.4359 138.828L42.3895 136.589C42.3971 136.57 42.3993 136.549 42.3956 136.529C42.3919 136.508 42.3825 136.489 42.3686 136.474L40.9448 134.995L44.9861 134.818C45.0064 134.817 45.0262 134.811 45.0429 134.799C45.0596 134.788 45.0725 134.771 45.0802 134.753C45.0877 134.734 45.0899 134.714 45.0867 134.694C45.0835 134.674 45.0749 134.655 45.0619 134.64L42.3712 131.584L46.0284 131.239C46.0477 131.237 46.066 131.23 46.0816 131.218C46.0972 131.207 46.1095 131.191 46.1173 131.174C46.1253 131.156 46.1281 131.137 46.1253 131.118C46.1225 131.099 46.1143 131.081 46.1016 131.067L43.8341 128.206H45.9004C45.9214 128.205 45.9419 128.199 45.9594 128.188C45.977 128.176 45.9909 128.16 45.9997 128.141L46.995 125.803C47.46 126.902 49.6073 131.461 54.0013 133.331C54.0277 133.342 54.0571 133.342 54.0834 133.331C54.1097 133.32 54.1309 133.3 54.1424 133.274C54.1479 133.261 54.1508 133.247 54.1509 133.233C54.151 133.219 54.1483 133.205 54.1429 133.193C54.1375 133.18 54.1296 133.168 54.1197 133.158C54.1097 133.148 54.0979 133.141 54.0849 133.135C49.1868 131.046 47.1178 125.541 47.0969 125.487C47.0903 125.466 47.0774 125.448 47.06 125.436C47.0426 125.423 47.0217 125.416 47.0002 125.416C46.9787 125.416 46.9576 125.422 46.9395 125.433C46.9214 125.445 46.9071 125.462 46.8984 125.481L45.8247 127.992H43.6068C43.5867 127.992 43.5671 127.998 43.5501 128.008C43.533 128.019 43.5192 128.034 43.5101 128.052C43.5 128.069 43.4947 128.088 43.4947 128.108C43.4947 128.128 43.5 128.147 43.5101 128.164L45.7933 131.038L42.1361 131.388C42.1165 131.389 42.0978 131.396 42.082 131.407C42.0663 131.419 42.0542 131.435 42.0472 131.453C42.0396 131.471 42.0373 131.491 42.0406 131.511C42.0438 131.53 42.0525 131.548 42.0655 131.563L44.7536 134.614L40.6993 134.792C40.6787 134.793 40.6589 134.8 40.6423 134.812C40.6256 134.824 40.6127 134.84 40.6052 134.86C40.5978 134.879 40.596 134.899 40.6002 134.919C40.6044 134.939 40.6143 134.958 40.6287 134.972L42.1648 136.571L41.0963 139.081C41.0895 139.097 41.0867 139.115 41.0882 139.132C41.0898 139.15 41.0956 139.167 41.1051 139.181C41.1147 139.196 41.1277 139.208 41.143 139.217C41.1583 139.225 41.1755 139.23 41.193 139.23Z" fill="#202325"/>
<path opacity="0.6" d="M33.8079 144.05C35.8276 144.913 38.0136 145.317 40.2082 145.232C42.4027 145.148 44.5512 144.577 46.4986 143.562C46.8561 143.371 47.2549 143.272 47.6598 143.272C48.0648 143.272 48.4635 143.371 48.821 143.562C48.8545 143.582 48.8894 143.599 48.9255 143.614C50.5791 144.317 53.4187 141.373 55.2656 137.034C57.1126 132.694 57.2719 128.609 55.6183 127.903C55.5817 127.888 55.5442 127.875 55.506 127.864C55.1247 127.74 54.78 127.524 54.5025 127.234C54.2249 126.945 54.0232 126.592 53.9151 126.205C53.2711 123.993 52.1211 121.96 50.5559 120.268C48.9908 118.577 47.0535 117.272 44.8973 116.459C43.9821 116.112 43.0343 115.858 42.0681 115.701L41.1224 116.098L43.9281 118.266L43.4735 118.63L43.9385 119.507L43.0112 118.94L41.9662 119.507L43.9307 123.747L39.9913 124.416L39.4871 125.2L40.7045 126.968L39.0744 125.531L37.5749 127.164L37.1621 132.331L35.822 130.678L33.1835 127.423H31.0127L30.4902 129.385V127.37L28.7321 126.968L26.334 130.43L25.8402 131.143L26.206 129.526L27.0289 125.868L26.6475 125.968L25.8402 126.179L26.4672 124.322L26.0832 124.223C25.2648 126.028 24.8156 127.979 24.7621 129.961C24.7085 131.943 25.0517 133.915 25.7714 135.763C26.491 137.61 27.5727 139.295 28.9528 140.718C30.3329 142.141 31.9836 143.274 33.8079 144.05Z" fill="#9E0000"/>
<path opacity="0.2" d="M28.74 126.96L26.3419 130.421C26.6684 132.031 27.5252 133.313 28.8393 133.891C31.0963 134.883 33.9777 133.47 35.8247 130.669L33.1862 127.415H31.0153L30.4929 129.376V127.362L28.74 126.96Z" fill="#9E0000"/>
<path opacity="0.2" d="M26.2139 129.513L27.0368 125.855L26.6554 125.955C26.2852 127.102 26.1354 128.31 26.2139 129.513Z" fill="#9E0000"/>
<path opacity="0.2" d="M31.1956 137.527C31.5744 138.22 32.6951 138.34 33.6956 137.789C34.6961 137.237 35.2003 136.234 34.8215 135.539C34.4427 134.844 33.322 134.727 32.3215 135.278C31.321 135.829 30.8063 136.832 31.1956 137.527Z" fill="#9E0000"/>
<g opacity="0.2">
<path d="M57.7814 130.229C57.7166 131.506 57.5418 132.775 57.2589 134.022C57.1074 134.636 56.9637 135.249 56.7547 135.85C56.6607 136.151 56.5457 136.443 56.4412 136.738C56.3368 137.034 56.2061 137.321 56.0755 137.606C55.8143 138.183 55.5531 138.75 55.2343 139.299C54.9156 139.847 54.5943 140.385 54.2547 140.918C53.5499 141.982 52.7299 142.965 51.8096 143.849C52.3827 143.535 52.9159 143.152 53.3979 142.71C53.8842 142.27 54.3358 141.794 54.7485 141.284C55.161 140.772 55.5389 140.234 55.8796 139.672C56.2173 139.101 56.5234 138.511 56.7965 137.906C57.329 136.7 57.6878 135.425 57.8624 134.118C57.9528 133.469 57.9938 132.814 57.9851 132.159C57.9797 131.51 57.9114 130.864 57.7814 130.229Z" fill="#9E0000"/>
</g>
<g opacity="0.2">
<path d="M59.3748 130.965C59.2609 132.241 59.0558 133.506 58.7609 134.753C58.6042 135.369 58.4553 135.983 58.2646 136.581L57.9798 137.488C57.8727 137.786 57.7761 138.091 57.6585 138.381C57.541 138.671 57.4417 138.969 57.3032 139.249L57.1099 139.677L56.8931 140.092C56.7599 140.377 56.5927 140.644 56.4386 140.915C56.3576 141.051 56.2687 141.176 56.1773 141.312C56.0859 141.448 56.0101 141.574 55.9161 141.709C55.56 142.233 55.1709 142.733 54.751 143.206C54.3324 143.692 53.8793 144.147 53.3952 144.567C53.9796 144.274 54.5254 143.909 55.02 143.481C55.5233 143.056 55.9868 142.587 56.4046 142.078C57.247 141.053 57.9151 139.897 58.3821 138.656C58.8376 137.426 59.1616 136.152 59.3487 134.855C59.5551 133.567 59.5639 132.255 59.3748 130.965Z" fill="#9E0000"/>
</g>
<g opacity="0.2">
<path d="M60.715 132.028C60.6895 133.219 60.5265 134.402 60.2291 135.555C59.9443 136.699 59.5731 137.819 59.1189 138.907C58.8984 139.45 58.6499 139.982 58.3744 140.5C58.1131 141.023 57.7944 141.519 57.4862 142.018C56.8371 143.014 56.0686 143.928 55.1978 144.737C55.7437 144.462 56.2513 144.117 56.7077 143.711C57.1684 143.304 57.5939 142.859 57.9799 142.381C58.1706 142.141 58.3639 141.898 58.5311 141.639L58.7923 141.255L59.0301 140.861C59.9502 139.259 60.5607 137.498 60.83 135.67C61.0363 134.461 60.9972 133.222 60.715 132.028Z" fill="#9E0000"/>
</g>
<g opacity="0.2">
<path d="M62.1543 133.423C62.0361 134.509 61.8282 135.584 61.5326 136.636C61.2434 137.675 60.8829 138.693 60.4537 139.682C60.0279 140.671 59.5275 141.627 58.9568 142.54C58.3848 143.468 57.6808 144.307 56.8669 145.032C57.3834 144.807 57.8605 144.501 58.2802 144.126C58.7053 143.753 59.0953 143.342 59.4453 142.898C60.1432 142.01 60.7203 141.035 61.1616 139.996C61.6081 138.962 61.9307 137.879 62.123 136.769C62.3295 135.664 62.3401 134.532 62.1543 133.423Z" fill="#9E0000"/>
</g>
<path d="M21.7807 145.244H25.1741L23.4761 144.332L21.4359 145.244" fill="#9E0000"/>
<path d="M29.5655 145.244L31.0597 144.789L32.6219 144.886L32.183 145.283L29.5655 145.244Z" fill="#9E0000"/>
<path d="M26.3419 143.842L28.7374 143.397L29.9782 143.62L29.5655 144.333L26.3419 143.842Z" fill="#9E0000"/>
<path d="M17.3005 144.333L19.0247 143.865L20.916 144.072L19.9886 144.79L17.3005 144.333Z" fill="#9E0000"/>
<path d="M46.1015 145.341H47.9119L47.3685 144.74H46.1015V145.341Z" fill="#9E0000"/>
<g opacity="0.6">
<path d="M21.7806 145.245H25.1741L23.476 144.333L21.4358 145.245" fill="#9E0000"/>
<path d="M29.5654 145.245L31.0597 144.79L32.6218 144.887L32.183 145.284L29.5654 145.245Z" fill="#9E0000"/>
<path d="M26.3418 143.842L28.7373 143.397L29.9782 143.62L29.5655 144.333L26.3418 143.842Z" fill="#9E0000"/>
<path d="M17.3005 144.333L19.0246 143.865L20.916 144.072L19.9886 144.79L17.3005 144.333Z" fill="#9E0000"/>
<path d="M46.1014 145.341H47.9118L47.3684 144.74H46.1014V145.341Z" fill="#9E0000"/>
</g>
<path d="M22.7342 89.9851L18.6877 85.8159L23.3168 89.0708L24.1553 87.762L20.9291 84.4365L24.6203 87.0332L27.392 82.7019L43.2254 84.1413L43.9908 85.1262L47.2772 81.9365L44.5368 85.8315L45.5739 87.1664L48.6539 84.1779L46.0859 87.83L53.168 96.9601L49.1763 102.19L52.3399 105.45L48.6617 102.864L47.6037 104.254L50.1011 106.827L47.1962 104.787L43.7714 109.275L36.1381 108.603L37.682 113.878L34.333 113.823L38.0896 124.079L30.7149 111.856L34.1371 112.109L32.4861 108.282L28.1496 107.901L24.9338 104.113L21.2347 107.705L24.2912 103.355L23.2698 102.151L19.8554 105.463L22.6767 101.453L18.5257 96.563L22.7342 89.9851Z" fill="#F73326"/>
<path opacity="0.3" d="M22.7342 89.9851L18.6877 85.8159L23.3168 89.0708L24.1553 87.762L20.9291 84.4365L24.6203 87.0332L27.392 82.7019L43.2254 84.1413L43.9908 85.1262L47.2772 81.9365L44.5368 85.8315L45.5739 87.1664L48.6539 84.1779L46.0859 87.83L53.168 96.9601L49.1763 102.19L52.3399 105.45L48.6617 102.864L47.6037 104.254L50.1011 106.827L47.1962 104.787L43.7714 109.275L36.1381 108.603L37.682 113.878L34.333 113.823L38.0896 124.079L30.7149 111.856L34.1371 112.109L32.4861 108.282L28.1496 107.901L24.9338 104.113L21.2347 107.705L24.2912 103.355L23.2698 102.151L19.8554 105.463L22.6767 101.453L18.5257 96.563L22.7342 89.9851Z" fill="white"/>
<path d="M36.7234 99.9411C35.4616 100.748 34.9574 100.986 33.9439 103.598C33.9439 103.598 33.3639 104.121 33.0844 102.995C32.8049 101.869 34.0901 99.9855 34.1999 99.1992C34.3096 98.4129 31.3263 98.4416 30.668 98.1543C30.0097 97.8669 29.7537 96.7018 30.7202 96.3256C30.7202 96.3256 29.0588 95.346 31.1042 94.3951C31.1042 94.3951 30.0018 93.1673 31.5849 92.5482C31.5849 92.5482 31.2035 91.5346 33.0348 91.1401C34.3932 90.8449 39.0013 92.2687 39.6388 93.2039L38.7035 98.1673C38.3326 99.2279 37.5907 99.3821 36.7234 99.9411Z" fill="white"/>
<path d="M38.7524 99.2357L40.8731 99.6614C41.1008 99.7071 41.3225 99.5595 41.3682 99.3318L42.4807 93.7892C42.5265 93.5615 42.3789 93.3398 42.1512 93.2941L40.0304 92.8684C39.8027 92.8227 39.581 92.9703 39.5353 93.198L38.4228 98.7405C38.3771 98.9683 38.5246 99.19 38.7524 99.2357Z" fill="#9E0000"/>
<path opacity="0.5" d="M38.7524 99.2357L40.8731 99.6614C41.1008 99.7071 41.3225 99.5595 41.3682 99.3318L42.4807 93.7892C42.5265 93.5615 42.3789 93.3398 42.1512 93.2941L40.0304 92.8684C39.8027 92.8227 39.581 92.9703 39.5353 93.198L38.4228 98.7405C38.3771 98.9683 38.5246 99.19 38.7524 99.2357Z" fill="#9E0000"/>
<path d="M40.6001 93.6868C40.6149 93.6139 40.651 93.5471 40.7038 93.4948C40.7566 93.4425 40.8237 93.4069 40.8966 93.3927C40.9696 93.3785 41.0451 93.3862 41.1137 93.4148C41.1822 93.4435 41.2408 93.4918 41.282 93.5537C41.3231 93.6156 41.345 93.6883 41.3448 93.7626C41.3447 93.8369 41.3226 93.9095 41.2812 93.9713C41.2398 94.033 41.1811 94.0812 41.1124 94.1096C41.0437 94.138 40.9682 94.1454 40.8953 94.1309C40.8465 94.1215 40.8001 94.1026 40.7588 94.0751C40.7174 94.0476 40.682 94.0121 40.6545 93.9708C40.627 93.9294 40.608 93.883 40.5987 93.8342C40.5893 93.7855 40.5898 93.7353 40.6001 93.6868Z" fill="white"/>
</svg>
