<svg width="160" height="150" viewBox="0 0 160 150" fill="none" xmlns="http://www.w3.org/2000/svg">
<path d="M151.766 143.499H156.172" stroke="#6C7072" stroke-linecap="round" stroke-linejoin="round"/>
<path d="M1.08453 143.499H148.537" stroke="#6C7072" stroke-linecap="round" stroke-linejoin="round"/>
<g opacity="0.2">
<path d="M105.35 11.5635C106.336 12.5993 109.296 13.7863 109.296 13.7863C109.296 13.7863 109.483 11.5931 109.476 11.455C109.407 9.8306 108.316 6.73313 106.563 6.25305C106.269 6.18063 105.964 6.1709 105.666 6.2245C105.368 6.2781 105.085 6.39382 104.835 6.56413C104.585 6.73444 104.374 6.95552 104.215 7.21295C104.056 7.47039 103.953 7.75842 103.913 8.05827C103.699 9.32422 104.515 10.679 105.35 11.5635Z" fill="#198155"/>
<path d="M134.799 24.8743C134.819 24.9006 136.167 23.148 136.239 23.0296C137.074 21.6355 137.883 18.4525 136.676 17.0813C136.471 16.8591 136.221 16.6826 135.943 16.5633C135.665 16.444 135.366 16.3846 135.063 16.3889C134.761 16.3932 134.462 16.4612 134.188 16.5885C133.914 16.7157 133.669 16.8993 133.47 17.1273C132.592 18.0645 132.527 19.6461 132.734 20.843C132.977 22.2471 134.799 24.871 134.799 24.8743Z" fill="#198155"/>
<path d="M148.109 17.9629C146.518 17.075 143.568 18.512 142.378 19.607C142.276 19.7023 140.839 21.3826 140.872 21.3957H140.905C140.438 21.6193 139.942 21.8659 139.402 22.1421C138.416 22.665 137.291 23.2667 136.114 24C134.844 24.7773 133.621 25.6282 132.451 26.5483C131.139 27.5804 129.921 28.7282 128.814 29.9779L128.775 30.0239C128.992 29.5373 129.557 28.1562 129.587 28.051C130.028 26.4891 129.955 23.2075 128.439 22.2013C128.183 22.0409 127.896 21.9364 127.597 21.8944C127.297 21.8525 126.993 21.8741 126.702 21.9578C126.412 22.0416 126.142 22.1857 125.911 22.3806C125.68 22.5755 125.493 22.817 125.362 23.0891C124.763 24.2269 125.115 25.769 125.631 26.8673C126.21 28.1069 128.472 30.0305 128.653 30.1851C127.55 31.4741 126.535 32.8363 125.615 34.2624C125.072 35.091 124.553 35.9394 124.043 36.8009C124.217 36.3734 124.372 35.9887 124.372 35.9328C124.813 34.3709 124.74 31.0893 123.224 30.0831C122.968 29.9227 122.681 29.8182 122.382 29.7762C122.082 29.7342 121.778 29.7559 121.487 29.8396C121.197 29.9234 120.927 30.0674 120.696 30.2624C120.465 30.4573 120.278 30.6987 120.147 30.9709C119.548 32.1086 119.9 33.6508 120.416 34.7524C120.932 35.8539 122.833 37.544 123.339 37.9814C123.149 38.3102 122.951 38.639 122.761 38.9678C121.843 40.5626 120.936 42.1574 119.999 43.6962C119.67 44.2388 119.325 44.7583 118.979 45.2844C119.134 44.903 119.262 44.584 119.275 44.5314C119.716 42.9662 119.644 39.6846 118.128 38.6784C117.871 38.5187 117.584 38.4147 117.284 38.3733C116.985 38.3318 116.68 38.3538 116.39 38.4379C116.1 38.5219 115.83 38.6661 115.6 38.8611C115.369 39.0561 115.181 39.2974 115.05 39.5695C114.451 40.7073 114.803 42.2494 115.32 43.3477C115.836 44.4459 117.552 45.9782 118.154 46.5011C117.786 47.0239 117.417 47.5533 117.036 48.0432C116.77 48.372 116.536 48.7008 116.247 49.0297L115.425 49.98C114.879 50.5653 114.317 51.1703 113.781 51.726C113.403 52.1173 113.038 52.4823 112.669 52.8505C112.998 52.3146 113.636 51.2525 113.679 51.1571C114.222 49.8342 114.416 48.3942 114.244 46.9745C114.31 46.8293 114.363 46.6786 114.402 46.5241C114.486 46.2336 114.507 45.9288 114.465 45.6295C114.423 45.3303 114.318 45.0432 114.158 44.7871C113.997 44.5309 113.785 44.3113 113.534 44.1427C113.283 43.974 113 43.86 112.702 43.808C110.9 43.5515 108.664 45.9519 107.951 47.425C107.911 47.5138 107.559 48.497 107.346 49.125C107.415 48.737 107.487 48.3622 107.553 47.9643C107.688 47.1751 107.799 46.386 107.921 45.5343C107.967 45.1233 108.013 44.7057 108.059 44.2848C108.105 43.8639 108.118 43.4233 108.151 42.9893C108.204 41.9765 108.207 40.9506 108.187 39.9148C108.878 40.0299 111.334 40.4113 112.515 40.1055C113.695 39.7997 115.106 39.0928 115.599 37.9057C115.725 37.631 115.792 37.3327 115.796 37.0303C115.799 36.7279 115.738 36.4282 115.618 36.1508C115.498 35.8734 115.32 35.6245 115.097 35.4203C114.874 35.2162 114.61 35.0614 114.323 34.9661C112.571 34.4235 109.996 36.4754 109.085 37.7906C109.029 37.8728 108.47 38.9053 108.178 39.4808C108.161 38.856 108.148 38.2378 108.112 37.6065C108.007 35.7914 107.842 33.9599 107.688 32.1284C107.638 31.5661 107.599 31.0071 107.556 30.4481C107.799 30.4941 110.713 31.0071 112.035 30.6651C113.209 30.3626 114.622 29.6524 115.119 28.4653C115.244 28.1905 115.31 27.8923 115.313 27.5902C115.316 27.2881 115.255 26.9888 115.135 26.7117C115.015 26.4346 114.838 26.1858 114.615 25.9815C114.392 25.7772 114.13 25.6219 113.843 25.5257C112.1 24.9996 109.526 27.035 108.602 28.37C108.529 28.4719 107.73 29.9582 107.546 30.3429C107.454 29.1098 107.372 27.88 107.339 26.6667C107.287 25.0208 107.342 23.3732 107.504 21.7344C107.615 21.7541 110.65 22.3033 112.005 21.9547C113.182 21.6522 114.596 20.942 115.089 19.7549C115.216 19.4802 115.283 19.1819 115.286 18.8795C115.289 18.5771 115.229 18.2774 115.108 18C114.988 17.7226 114.81 17.4737 114.587 17.2695C114.364 17.0654 114.101 16.9106 113.814 16.8153C112.074 16.2859 109.499 18.3246 108.572 19.6596C108.513 19.7483 107.915 20.8795 107.625 21.4253L107.527 21.3957C107.731 19.7562 108.083 18.1384 108.579 16.5621C108.839 15.6907 109.138 14.872 109.447 14.0828C109.999 14.2439 112.544 14.9476 113.797 14.7667C115.05 14.5859 116.484 14.0433 117.105 12.9221C117.26 12.6626 117.359 12.3734 117.396 12.0732C117.432 11.773 117.405 11.4686 117.316 11.1796C117.227 10.8907 117.078 10.6236 116.879 10.3958C116.68 10.1681 116.436 9.98464 116.161 9.85747C114.488 9.14064 111.706 10.8834 110.637 12.1099C110.581 12.1756 110.065 12.9188 109.697 13.4646C109.841 13.1095 109.986 12.7412 110.131 12.4058C110.67 11.1399 111.245 10.0153 111.775 9.02227C112.074 8.45999 112.354 7.96018 112.62 7.49326C113.248 7.36502 115.767 6.83562 116.779 6.09907C117.792 5.36251 118.828 4.22151 118.861 2.93583C118.88 2.63406 118.835 2.33172 118.729 2.04852C118.623 1.76532 118.458 1.50765 118.246 1.2923C118.034 1.07696 117.779 0.908792 117.497 0.798777C117.215 0.688761 116.914 0.63937 116.612 0.653827C114.797 0.788643 113.13 3.6132 112.748 5.19482C112.715 5.33292 112.442 7.52614 112.479 7.51957H112.515C112.248 7.96347 111.969 8.44355 111.673 8.97295C111.134 9.9594 110.532 11.0708 109.96 12.3302C109.333 13.6799 108.784 15.0643 108.316 16.4766C107.772 18.0623 107.369 19.693 107.112 21.3497C107.114 21.3694 107.114 21.3892 107.112 21.4089C107.023 20.8828 106.731 19.436 106.698 19.311C106.201 17.7623 104.33 15.0627 102.512 15.0627C102.21 15.0701 101.912 15.1412 101.639 15.2714C101.366 15.4015 101.124 15.5878 100.928 15.8181C100.731 16.0483 100.586 16.3174 100.501 16.6076C100.416 16.8979 100.393 17.2028 100.434 17.5025C100.562 18.7816 101.706 19.8733 102.736 20.5046C103.906 21.2182 106.852 21.5766 107.086 21.6029C106.878 23.288 106.783 24.9853 106.803 26.6831C106.803 27.6696 106.843 28.656 106.892 29.6655C106.8 29.2118 106.718 28.8073 106.701 28.7547C106.205 27.206 104.334 24.5096 102.515 24.5064C102.214 24.5139 101.917 24.5848 101.644 24.7146C101.372 24.8444 101.13 25.03 100.934 25.2596C100.738 25.4891 100.592 25.7573 100.507 26.0467C100.421 26.3362 100.397 26.6404 100.437 26.9396C100.565 28.2187 101.71 29.3104 102.739 29.9417C103.768 30.5731 106.297 30.9282 106.961 31.0235C106.984 31.405 107.004 31.7897 107.027 32.1711C107.142 34.0059 107.263 35.8375 107.329 37.6394C107.356 38.274 107.352 38.8988 107.356 39.5235C107.277 39.1224 107.204 38.787 107.188 38.7343C106.691 37.1889 104.824 34.4893 103.002 34.486C102.7 34.4938 102.402 34.5653 102.129 34.6959C101.856 34.8265 101.614 35.0131 101.418 35.2437C101.223 35.4743 101.078 35.7436 100.993 36.034C100.908 36.3244 100.886 36.6295 100.927 36.9291C101.052 38.2082 102.2 39.2999 103.229 39.9312C104.258 40.5626 106.543 40.8914 107.333 40.9966C107.313 41.6378 107.296 42.279 107.254 42.9005C107.211 43.3214 107.201 43.7324 107.139 44.1566C107.076 44.5807 107.027 44.9885 106.974 45.4028C106.839 46.1887 106.708 47.0041 106.56 47.7703C106.458 48.303 106.353 48.8094 106.251 49.3223C106.234 48.6877 106.175 47.4546 106.159 47.3494C105.902 45.7448 104.465 42.7953 102.667 42.5191C102.367 42.4812 102.062 42.5068 101.773 42.5944C101.483 42.682 101.216 42.8296 100.987 43.0275C100.758 43.2253 100.574 43.4691 100.446 43.743C100.318 44.0169 100.249 44.3146 100.243 44.6169C100.177 45.8993 101.141 47.1521 102.071 47.9347C103.094 48.7929 105.836 49.5788 106.178 49.6709C106.004 50.5159 105.827 51.3347 105.646 52.1041C105.031 54.7511 104.419 56.9378 103.965 58.4668L105.1 58.9501L105.129 58.8482C105.554 57.2863 106.116 55.0503 106.698 52.3376C106.879 51.4827 107.056 50.562 107.231 49.6183C108.147 49.6372 109.064 49.6031 109.976 49.5163C110.44 50.8086 112.173 52.8308 112.396 53.0906C111.785 53.6956 111.183 54.2809 110.608 54.8267C108.635 56.6944 106.918 58.1774 105.698 59.2066L106.941 59.736C108.112 58.6969 109.638 57.3028 111.357 55.5995C111.982 54.9846 112.636 54.3171 113.301 53.6266C113.59 53.8271 115.931 55.4482 117.246 55.6883C118.44 55.9086 120.022 55.8527 120.969 54.9846C121.198 54.7877 121.384 54.5447 121.514 54.2712C121.643 53.9978 121.714 53.7002 121.72 53.3977C121.727 53.0953 121.67 52.7948 121.553 52.5158C121.436 52.2368 121.262 51.9856 121.041 51.7786C119.683 50.5718 116.49 51.3413 115.089 52.1666C115.007 52.2126 114.172 52.8242 113.649 53.2484C113.919 52.9623 114.185 52.6894 114.461 52.3935C115.007 51.8115 115.537 51.213 116.105 50.5718L116.908 49.6051C117.184 49.2763 117.434 48.9179 117.7 48.5726C118.302 47.7571 118.874 46.9022 119.43 46.0308C119.939 46.5076 121.781 48.1813 122.932 48.5792C124.083 48.9771 125.651 49.1612 126.72 48.4444C126.976 48.2844 127.196 48.0723 127.365 47.8217C127.535 47.5711 127.649 47.2878 127.702 46.99C127.754 46.6922 127.743 46.3868 127.67 46.0935C127.596 45.8002 127.462 45.5256 127.275 45.2877C126.115 43.8869 122.846 44.1664 121.337 44.7682C121.242 44.8043 120.206 45.3601 119.647 45.6757C119.976 45.1496 120.304 44.6235 120.633 44.0777C121.547 42.5059 122.422 40.8848 123.303 39.2736C123.573 38.7804 123.845 38.2893 124.119 37.8005C124.3 37.9715 126.443 40.0069 127.736 40.4541C128.88 40.8487 130.452 41.0361 131.52 40.3193C131.777 40.1596 131.998 39.9477 132.167 39.6972C132.337 39.4468 132.451 39.1634 132.504 38.8656C132.557 38.5679 132.546 38.2623 132.473 37.9689C132.4 37.6755 132.266 37.4007 132.079 37.1626C130.915 35.7618 127.647 36.0413 126.138 36.6431C126.023 36.6891 124.536 37.4881 124.165 37.7117C124.766 36.6299 125.375 35.5612 126.019 34.5288C126.883 33.1318 127.835 31.7918 128.87 30.5172C128.952 30.5994 131.172 32.7334 132.504 33.1905C133.651 33.585 135.223 33.7725 136.288 33.0556C136.545 32.896 136.765 32.684 136.935 32.4336C137.104 32.1831 137.219 31.8998 137.272 31.602C137.325 31.3042 137.314 30.9987 137.241 30.7053C137.168 30.4118 137.034 30.1371 136.847 29.899C135.687 28.4982 132.415 28.7777 130.906 29.3794C130.807 29.4189 129.672 30.0371 129.14 30.3297L129.074 30.2475C130.151 28.9951 131.337 27.8408 132.619 26.7982C133.319 26.2162 134.019 25.6967 134.71 25.21C135.085 25.6474 136.818 27.64 137.962 28.1694C139.106 28.6988 140.593 29.0473 141.74 28.4522C142.013 28.3216 142.255 28.1351 142.45 27.9048C142.646 27.6746 142.791 27.4057 142.876 27.1158C142.961 26.8258 142.984 26.5212 142.943 26.2218C142.903 25.9223 142.8 25.6347 142.641 25.3777C141.655 23.8553 138.366 23.7731 136.795 24.2071C136.709 24.2301 135.867 24.5688 135.262 24.8187C135.591 24.605 135.9 24.3748 136.206 24.1611C137.357 23.4048 138.455 22.7833 139.432 22.2408C139.991 21.9383 140.504 21.6719 140.984 21.4319C141.576 21.6719 143.976 22.6091 145.219 22.563C146.462 22.517 147.965 22.1257 148.701 21.0735C148.879 20.8347 149.005 20.5616 149.072 20.2715C149.138 19.9814 149.144 19.6806 149.088 19.3882C149.033 19.0958 148.917 18.8182 148.748 18.5728C148.58 18.3275 148.362 18.1198 148.109 17.9629Z" fill="#198155"/>
</g>
<g opacity="0.2">
<path d="M52.8341 12.1985C51.8476 13.2376 48.8882 14.4213 48.8882 14.4246C48.8882 14.4279 48.7008 12.2314 48.7074 12.09C48.7764 10.4656 49.8681 7.37145 51.624 6.88808C51.9164 6.81882 52.22 6.8115 52.5154 6.8666C52.8108 6.9217 53.0914 7.038 53.3391 7.20801C53.5869 7.37803 53.7963 7.59801 53.954 7.85381C54.1116 8.10961 54.214 8.39556 54.2546 8.6933C54.4814 9.95925 53.666 11.3173 52.8341 12.1985Z" fill="#198155"/>
<path d="M23.3818 25.5084C23.3818 25.538 22.0172 23.7854 21.9448 23.6637C21.1063 22.2695 20.304 19.0866 21.5075 17.7318C21.7127 17.5101 21.9622 17.3341 22.2398 17.2151C22.5175 17.0961 22.8171 17.0369 23.1191 17.0412C23.4211 17.0456 23.7189 17.1134 23.993 17.2403C24.2671 17.3672 24.5115 17.5504 24.7102 17.7779C25.5881 18.7183 25.6572 20.2966 25.45 21.4935C25.2067 22.8811 23.385 25.5084 23.3818 25.5084Z" fill="#198155"/>
<path d="M10.0744 18.5971C11.6626 17.7093 14.6121 19.1462 15.8025 20.2412C15.9044 20.3366 17.3413 22.0168 17.3117 22.03H17.2756C17.7425 22.2503 18.2423 22.4969 18.7816 22.7764C19.768 23.2992 20.8893 23.8977 22.0698 24.6309C23.3392 25.4101 24.5633 26.2609 25.7361 27.1793C27.0486 28.2147 28.2678 29.3634 29.3794 30.6121L29.4156 30.6615C29.1985 30.1748 28.6363 28.7905 28.6034 28.6886C28.1661 27.1234 28.2351 23.8418 29.751 22.8356C30.0076 22.6753 30.2952 22.5708 30.5949 22.5291C30.8946 22.4873 31.1997 22.5092 31.4904 22.5933C31.7811 22.6773 32.0508 22.8217 32.282 23.017C32.5131 23.2123 32.7005 23.4541 32.832 23.7267C33.4304 24.8611 33.0786 26.4066 32.5624 27.5048C31.9804 28.7445 29.7181 30.668 29.5372 30.8193C30.6408 32.1103 31.6569 33.4735 32.5788 34.8999C33.1181 35.7253 33.6376 36.5769 34.1506 37.4351C33.973 37.0077 33.8217 36.6262 33.8217 36.5703C33.3844 35.0052 33.4535 31.7236 34.9693 30.7174C35.226 30.557 35.5135 30.4526 35.8132 30.4109C36.1129 30.3691 36.4181 30.391 36.7088 30.4751C36.9995 30.5591 37.2692 30.7035 37.5003 30.8988C37.7315 31.0941 37.9189 31.3359 38.0504 31.6085C38.6488 32.7462 38.297 34.2883 37.7807 35.3866C37.2645 36.4849 35.3606 38.1816 34.8542 38.6189C35.0482 38.9477 35.2422 39.2765 35.433 39.6053C36.3504 41.2001 37.2579 42.7949 38.195 44.3305C38.5239 44.873 38.8724 45.3958 39.2144 45.9187C39.0598 45.5405 38.9349 45.2183 38.9184 45.169C38.4811 43.6038 38.5502 40.3222 40.066 39.316C40.3227 39.1557 40.6102 39.0512 40.9099 39.0095C41.2096 38.9677 41.5148 38.9896 41.8055 39.0737C42.0962 39.1577 42.3659 39.3021 42.597 39.4974C42.8282 39.6927 43.0156 39.9345 43.147 40.2071C43.7455 41.3415 43.3937 42.887 42.8774 43.9852C42.3612 45.0835 40.6414 46.6158 40.043 47.1353C40.4113 47.6614 40.7795 48.1875 41.1577 48.6807C41.4273 49.0096 41.6608 49.3384 41.9469 49.6672L42.7722 50.6142C43.318 51.1995 43.877 51.8045 44.4163 52.3635C44.7944 52.7515 45.1627 53.1165 45.531 53.4848C45.2022 52.9488 44.561 51.8867 44.5182 51.7914C43.9747 50.4686 43.781 49.0281 43.9559 47.6088C43.8891 47.4648 43.8352 47.3151 43.7948 47.1616C43.712 46.8709 43.6913 46.5659 43.7341 46.2667C43.7769 45.9674 43.8822 45.6805 44.0431 45.4246C44.2041 45.1688 44.4171 44.9496 44.6684 44.7815C44.9196 44.6134 45.2035 44.5 45.5014 44.4488C47.3033 44.1891 49.5393 46.5927 50.2528 48.0659C50.2956 48.1513 50.6474 49.1378 50.8578 49.7626C50.7888 49.3746 50.7197 49.003 50.654 48.6018C50.5192 47.816 50.4074 47.0235 50.2824 46.1751C50.2397 45.7608 50.1936 45.3465 50.1476 44.9256C50.1016 44.5047 50.0884 44.0608 50.0555 43.6104C50.0029 42.5976 49.9996 41.5717 50.0161 40.5359C49.3256 40.6543 46.8693 41.0324 45.6888 40.7299C44.5084 40.4274 43.101 39.7139 42.6045 38.5301C42.4786 38.2551 42.412 37.9566 42.4089 37.6541C42.4059 37.3517 42.4665 37.0519 42.5868 36.7744C42.7071 36.4969 42.8844 36.2478 43.1073 36.0432C43.3301 35.8387 43.5935 35.6833 43.8803 35.5872C45.6231 35.0611 48.1977 37.0965 49.1217 38.4315C49.1809 38.517 49.7366 39.5494 50.0325 40.1216C50.049 39.5001 50.0588 38.8787 50.0983 38.2506C50.2035 36.4355 50.3646 34.6007 50.5225 32.7692C50.5685 32.2102 50.6079 31.6512 50.654 31.0889C50.4074 31.135 47.4973 31.6479 46.1755 31.3092C44.9983 31.0067 43.5844 30.2932 43.0911 29.1094C42.9648 28.8347 42.8977 28.5364 42.8944 28.234C42.8912 27.9316 42.9517 27.6319 43.0721 27.3545C43.1925 27.0771 43.37 26.8282 43.5932 26.624C43.8163 26.4199 44.08 26.2651 44.367 26.1698C46.1064 25.6404 48.6811 27.6758 49.6083 29.0108C49.6774 29.1127 50.4764 30.599 50.6606 30.9837C50.7559 29.7539 50.8381 28.5241 50.871 27.3075C50.9228 25.6671 50.8679 24.025 50.7066 22.3917C50.5915 22.4114 47.5565 22.9638 46.2018 22.6153C45.0279 22.3128 43.614 21.5992 43.1175 20.4155C42.9888 20.1396 42.9199 19.8397 42.9154 19.5353C42.9109 19.2309 42.9709 18.9291 43.0914 18.6496C43.2119 18.37 43.3902 18.1192 43.6146 17.9135C43.839 17.7078 44.1043 17.5519 44.3933 17.4561C46.136 16.93 48.7107 18.9654 49.6346 20.3004C49.6971 20.3892 50.2923 21.5236 50.5849 22.0661L50.6836 22.0365C50.4758 20.3972 50.1226 18.7796 49.6281 17.2029C49.3683 16.3315 49.0691 15.5128 48.7633 14.7236C48.2076 14.8847 45.6625 15.5884 44.4097 15.4108C43.2095 15.2399 41.7265 14.6874 41.1018 13.5629C40.9467 13.3035 40.8479 13.0143 40.8119 12.7142C40.7759 12.4141 40.8034 12.1098 40.8927 11.8211C40.9821 11.5323 41.1312 11.2656 41.3303 11.0383C41.5295 10.811 41.7743 10.6281 42.0488 10.5016C43.7225 9.78475 46.5043 11.5242 47.5697 12.7507C47.6288 12.8165 48.1418 13.5596 48.5101 14.1054C48.3654 13.7536 48.224 13.3853 48.0793 13.0466C47.5368 11.784 46.9613 10.6561 46.4352 9.66638C46.1393 9.1041 45.8565 8.60101 45.5902 8.13408C44.9621 8.00584 42.4434 7.47645 41.4339 6.74318C40.4244 6.00991 39.3755 4.88206 39.3492 3.59309C39.3309 3.29131 39.3763 2.98905 39.4824 2.70593C39.5884 2.42281 39.7528 2.16515 39.9649 1.94967C40.177 1.73418 40.432 1.56569 40.7134 1.45511C40.9948 1.34453 41.2963 1.29434 41.5983 1.3078C43.4134 1.44262 45.0805 4.26717 45.4619 5.85208C45.4948 5.9869 45.7677 8.18341 45.7349 8.17683H45.6954C45.9617 8.62074 46.2445 9.10081 46.5405 9.63021C47.0797 10.6167 47.6782 11.7314 48.2503 12.9875C48.8803 14.3368 49.4293 15.7225 49.8944 17.1371C50.4291 18.7166 50.8208 20.341 51.065 21.9905C51.065 22.0102 51.065 22.03 51.065 22.0497C51.1505 21.5236 51.4431 20.0603 51.4793 19.9518C51.989 18.3899 53.8435 15.7035 55.6783 15.7002C55.9807 15.7086 56.2779 15.7805 56.5507 15.9112C56.8234 16.0418 57.0657 16.2285 57.2616 16.4588C57.4576 16.6892 57.6029 16.9583 57.6882 17.2485C57.7734 17.5387 57.7967 17.8436 57.7565 18.1433C57.6282 19.4191 56.4807 20.5141 55.4547 21.1454C54.2874 21.8557 51.3412 22.2141 51.1045 22.2404C51.3136 23.9255 51.4091 25.6228 51.3905 27.3207C51.3905 28.3071 51.3478 29.2936 51.3018 30.3031C51.3905 29.8526 51.476 29.4481 51.4925 29.3922C51.989 27.8435 53.8567 25.1472 55.6783 25.1439C55.9807 25.1523 56.2779 25.2241 56.5507 25.3548C56.8234 25.4855 57.0657 25.6721 57.2616 25.9025C57.4576 26.1329 57.6029 26.4019 57.6882 26.6921C57.7734 26.9823 57.7967 27.2872 57.7565 27.587C57.6282 28.8628 56.4807 29.9578 55.4547 30.5891C54.4288 31.2205 51.8969 31.5756 51.2327 31.6709C51.2097 32.0524 51.1932 32.4338 51.1669 32.8185C51.0519 34.6533 50.9302 36.4849 50.8644 38.2835C50.8414 38.9181 50.8414 39.5429 50.8381 40.1709C50.9203 39.7698 50.9894 39.4311 51.0058 39.3817C51.5023 37.833 53.3733 35.1334 55.1917 35.1334C55.4941 35.1408 55.7915 35.2119 56.0645 35.3421C56.3375 35.4723 56.58 35.6586 56.7761 35.8888C56.9722 36.1191 57.1176 36.3881 57.2027 36.6784C57.2877 36.9686 57.3106 37.2735 57.2698 37.5732C57.1416 38.8523 55.9973 39.944 54.9681 40.5754C53.9389 41.2067 51.6536 41.5355 50.8644 41.6407C50.8644 42.2819 50.8973 42.9231 50.9433 43.5446C50.9828 43.9688 50.9927 44.3765 51.0584 44.8007C51.1242 45.2249 51.1669 45.6359 51.2228 46.0469C51.3544 46.8361 51.4859 47.6483 51.6372 48.4144C51.7358 48.9504 51.841 49.4568 51.9462 49.9664C51.9462 49.3351 52.0186 48.0987 52.035 47.9935C52.2915 46.3889 53.7317 43.4394 55.5304 43.1599C55.8302 43.1219 56.1346 43.1476 56.4238 43.2352C56.713 43.3229 56.9805 43.4705 57.2089 43.6684C57.4372 43.8663 57.6213 44.1102 57.7491 44.384C57.8769 44.6579 57.9455 44.9556 57.9505 45.2577C58.0195 46.5401 57.0528 47.7929 56.1255 48.5755C55.1029 49.437 52.3573 50.2196 52.0153 50.3117C52.1896 51.1568 52.3704 51.9755 52.5513 52.7449C53.1662 55.3952 53.7778 57.5786 54.2315 59.1109L53.0938 59.5942C53.0938 59.5581 53.0938 59.5252 53.0675 59.489C52.6433 57.9304 52.0646 55.6912 51.4958 52.9784C51.3149 52.1235 51.1373 51.2028 50.9664 50.2591C50.0488 50.2798 49.1309 50.2457 48.2174 50.1571C47.7571 51.4494 46.0242 53.4716 45.7973 53.7314C46.4089 54.3397 47.0107 54.925 47.5861 55.4676C49.559 57.3353 51.2755 58.8215 52.4987 59.8474L51.213 60.3801C50.0457 59.3443 48.52 57.9469 46.7969 56.2469C46.1755 55.632 45.5178 54.9612 44.8536 54.274C44.5675 54.4712 42.2231 56.0956 40.9078 56.3356C39.7109 56.5527 38.1293 56.4968 37.1856 55.6287C36.9557 55.4324 36.7698 55.1898 36.64 54.9168C36.5102 54.6438 36.4395 54.3464 36.4323 54.0442C36.4252 53.742 36.4818 53.4417 36.5986 53.1629C36.7154 52.884 36.8896 52.6329 37.1099 52.426C38.4712 51.2159 41.6608 51.9854 43.0616 52.8107C43.1438 52.86 43.9822 53.4881 44.5018 53.8925C44.2321 53.6065 43.9658 53.3335 43.6929 53.0376C43.1438 52.4556 42.6144 51.8571 42.0488 51.2159L41.2465 50.2492C40.9703 49.9204 40.7204 49.562 40.454 49.2167C39.8523 48.4045 39.2834 47.5496 38.7277 46.675C38.2148 47.155 36.3767 48.8254 35.2225 49.2233C34.0684 49.6212 32.5032 49.8053 31.4378 49.0885C31.1811 48.9292 30.9608 48.7175 30.7913 48.4674C30.6218 48.2172 30.507 47.9341 30.4542 47.6366C30.4015 47.3391 30.4121 47.0338 30.4852 46.7406C30.5584 46.4474 30.6925 46.173 30.8788 45.9351C32.0395 44.5311 35.3113 44.8105 36.8206 45.4123C36.9126 45.4517 37.9484 46.0074 38.5107 46.3231C38.1819 45.7937 37.8531 45.2676 37.5242 44.7251C36.6134 43.1533 35.7355 41.5322 34.8575 39.921C34.5879 39.4245 34.3117 38.9346 34.0388 38.4446C33.8612 38.6189 31.714 40.651 30.4218 41.0982C29.2742 41.4961 27.7024 41.6802 26.6338 40.9667C26.3772 40.8067 26.1571 40.5946 25.988 40.344C25.8188 40.0934 25.7043 39.81 25.6518 39.5123C25.5994 39.2145 25.6103 38.909 25.6837 38.6158C25.7572 38.3225 25.8915 38.0479 26.0781 37.81C27.2388 36.4059 30.5105 36.6854 32.0165 37.2905C32.1316 37.3332 33.6179 38.1355 33.9894 38.3558C33.3877 37.2773 32.7794 36.2054 32.1349 35.1762C31.2755 33.7774 30.3242 32.4373 29.2873 31.1646C29.2018 31.2435 26.9856 33.3775 25.6703 33.8346C24.5227 34.2292 22.951 34.4166 21.8823 33.6998C21.6263 33.5412 21.4065 33.3306 21.237 33.0816C21.0675 32.8327 20.9523 32.5509 20.8986 32.2545C20.845 31.9582 20.8542 31.6539 20.9257 31.3613C20.9972 31.0688 21.1293 30.7945 21.3135 30.5562C22.4742 29.1522 25.7427 29.4317 27.2519 30.0334C27.3506 30.0729 28.485 30.6911 29.0177 30.9837L29.0835 30.9048C28.0072 29.6506 26.8209 28.4951 25.5388 27.4522C24.8417 26.8702 24.1413 26.3539 23.4475 25.864C23.0726 26.3046 21.3398 28.294 20.1955 28.8234C19.1005 29.3462 17.5649 29.7013 16.4206 29.1094C16.1474 28.9792 15.9048 28.7928 15.7084 28.5624C15.5121 28.3321 15.3665 28.0629 15.2812 27.7725C15.1959 27.4821 15.1727 27.177 15.2133 26.877C15.2538 26.5771 15.3571 26.289 15.5164 26.0317C16.5193 24.5126 19.791 24.4304 21.3661 24.8644C21.4516 24.8874 22.2901 25.2228 22.8984 25.476C22.5696 25.259 22.2605 25.0321 21.9547 24.8184C20.8038 24.0621 19.7055 23.4406 18.7257 22.8948C18.1667 22.6054 17.6734 22.3358 17.1736 22.099C16.5818 22.3391 14.1814 23.2762 12.9384 23.2335C11.6955 23.1907 10.1928 22.7961 9.45297 21.7439C9.27152 21.5019 9.143 21.2244 9.07576 20.9295C9.00852 20.6346 9.00406 20.3288 9.06266 20.0321C9.12127 19.7353 9.24163 19.4542 9.41594 19.207C9.59025 18.9598 9.8146 18.752 10.0744 18.5971Z" fill="#198155"/>
</g>
<path d="M153.019 49.5068V51.0062C153.006 51.1833 152.928 51.3491 152.798 51.4702C152.668 51.5913 152.497 51.6587 152.32 51.6587C152.142 51.6587 151.972 51.5913 151.842 51.4702C151.712 51.3491 151.633 51.1833 151.621 51.0062V49.5068H147.534V51.0062C147.522 51.1833 147.443 51.3491 147.313 51.4702C147.183 51.5913 147.013 51.6587 146.835 51.6587C146.658 51.6587 146.487 51.5913 146.357 51.4702C146.227 51.3491 146.149 51.1833 146.136 51.0062V49.5068H142.052V51.0062C142.052 51.192 141.979 51.3701 141.847 51.5015C141.716 51.6328 141.538 51.7066 141.352 51.7066C141.166 51.7066 140.988 51.6328 140.857 51.5015C140.725 51.3701 140.652 51.192 140.652 51.0062V49.5068H136.568V51.0062C136.556 51.1833 136.477 51.3491 136.347 51.4702C136.217 51.5913 136.046 51.6587 135.869 51.6587C135.692 51.6587 135.521 51.5913 135.391 51.4702C135.261 51.3491 135.182 51.1833 135.17 51.0062V49.5068H131.083V51.0062C131.083 51.1911 131.01 51.3684 130.879 51.4992C130.748 51.6299 130.571 51.7033 130.386 51.7033C130.201 51.7033 130.024 51.6299 129.893 51.4992C129.762 51.3684 129.689 51.1911 129.689 51.0062V49.5068H127.828V68.9072H154.913V49.5068H153.019ZM132.283 66.1089H130.176V64.0012H132.283V66.1089ZM132.283 63.0509H130.176V60.9432H132.283V63.0509ZM132.283 59.9929H130.176V57.8851H132.283V59.9929ZM132.283 56.9349H130.176V54.8271H132.283V56.9349ZM135.66 66.1089H133.549V64.0012H135.66V66.1089ZM135.66 63.0509H133.549V60.9432H135.66V63.0509ZM135.66 59.9929H133.549V57.8851H135.66V59.9929ZM135.66 56.9349H133.549V54.8271H135.66V56.9349ZM139.031 66.1089H136.926V64.0012H139.031V66.1089ZM139.031 63.0509H136.926V60.9432H139.031V63.0509ZM139.031 59.9929H136.926V57.8851H139.031V59.9929ZM139.031 56.9349H136.926V54.8271H139.031V56.9349ZM142.408 66.1089H140.297V64.0012H142.408V66.1089ZM142.408 63.0509H140.297V60.9432H142.408V63.0509ZM142.408 59.9929H140.297V57.8851H142.408V59.9929ZM142.408 56.9349H140.297V54.8271H142.408V56.9349ZM145.781 66.1089H143.674V64.0012H145.781V66.1089ZM145.781 63.0509H143.674V60.9432H145.781V63.0509ZM145.781 59.9929H143.674V57.8851H145.781V59.9929ZM145.781 56.9349H143.674V54.8271H145.781V56.9349ZM149.158 66.1089H147.047V64.0012H149.158V66.1089ZM149.158 63.0509H147.047V60.9432H149.158V63.0509ZM149.158 59.9929H147.047V57.8851H149.158V59.9929ZM149.158 56.9349H147.047V54.8271H149.158V56.9349ZM152.529 66.1089H150.424V64.0012H152.529V66.1089ZM152.529 63.0509H150.424V60.9432H152.529V63.0509ZM152.529 59.9929H150.424V57.8851H152.529V59.9929ZM152.529 56.9349H150.424V54.8271H152.529V56.9349Z" stroke="#6C7072" stroke-linecap="round" stroke-linejoin="round"/>
<path d="M153.019 47.9317V51.0062C153.006 51.1832 152.928 51.349 152.798 51.4701C152.668 51.5912 152.497 51.6586 152.32 51.6586C152.142 51.6586 151.972 51.5912 151.842 51.4701C151.712 51.349 151.633 51.1832 151.621 51.0062V47.9317C151.633 47.7547 151.712 47.5889 151.842 47.4678C151.972 47.3467 152.142 47.2793 152.32 47.2793C152.497 47.2793 152.668 47.3467 152.798 47.4678C152.928 47.5889 153.006 47.7547 153.019 47.9317Z" stroke="#6C7072" stroke-linecap="round" stroke-linejoin="round"/>
<path d="M147.534 47.9317V51.0062C147.522 51.1832 147.443 51.349 147.313 51.4701C147.183 51.5912 147.013 51.6586 146.835 51.6586C146.658 51.6586 146.487 51.5912 146.357 51.4701C146.227 51.349 146.149 51.1832 146.136 51.0062V47.9317C146.149 47.7547 146.227 47.5889 146.357 47.4678C146.487 47.3467 146.658 47.2793 146.835 47.2793C147.013 47.2793 147.183 47.3467 147.313 47.4678C147.443 47.5889 147.522 47.7547 147.534 47.9317Z" stroke="#6C7072" stroke-linecap="round" stroke-linejoin="round"/>
<path d="M142.053 47.9315V51.006C142.053 51.1917 141.979 51.3699 141.847 51.5012C141.716 51.6326 141.538 51.7064 141.352 51.7064C141.166 51.7064 140.988 51.6326 140.857 51.5012C140.726 51.3699 140.652 51.1917 140.652 51.006V47.9315C140.652 47.8397 140.67 47.7488 140.705 47.664C140.74 47.5792 140.792 47.5022 140.857 47.4374C140.922 47.3726 140.999 47.3214 141.084 47.2865C141.169 47.2517 141.26 47.234 141.352 47.2344C141.444 47.2334 141.535 47.251 141.62 47.286C141.704 47.321 141.781 47.3728 141.845 47.4383C141.911 47.5026 141.963 47.5793 141.999 47.664C142.034 47.7487 142.053 47.8397 142.053 47.9315Z" stroke="#6C7072" stroke-linecap="round" stroke-linejoin="round"/>
<path d="M136.568 47.9315V51.0059C136.556 51.183 136.477 51.3488 136.347 51.4699C136.217 51.591 136.046 51.6584 135.869 51.6584C135.692 51.6584 135.521 51.591 135.391 51.4699C135.261 51.3488 135.182 51.183 135.17 51.0059V47.9315C135.17 47.8397 135.188 47.7487 135.224 47.664C135.259 47.5792 135.311 47.5022 135.376 47.4374C135.441 47.3726 135.518 47.3213 135.603 47.2865C135.688 47.2517 135.779 47.2339 135.871 47.2344C136.056 47.2344 136.233 47.3078 136.364 47.4386C136.494 47.5693 136.568 47.7466 136.568 47.9315Z" stroke="#6C7072" stroke-linecap="round" stroke-linejoin="round"/>
<path d="M131.083 47.9315V51.0059C131.083 51.1908 131.01 51.3681 130.879 51.4989C130.748 51.6296 130.571 51.703 130.386 51.703C130.201 51.703 130.024 51.6296 129.893 51.4989C129.762 51.3681 129.689 51.1908 129.689 51.0059V47.9315C129.689 47.7466 129.762 47.5693 129.893 47.4385C130.024 47.3078 130.201 47.2344 130.386 47.2344C130.571 47.2344 130.748 47.3078 130.879 47.4385C131.01 47.5693 131.083 47.7466 131.083 47.9315Z" stroke="#6C7072" stroke-linecap="round" stroke-linejoin="round"/>
<path d="M20.4091 70.4876C26.5564 70.4876 31.5397 65.5043 31.5397 59.3571C31.5397 53.2099 26.5564 48.2266 20.4091 48.2266C14.2619 48.2266 9.27863 53.2099 9.27863 59.3571C9.27863 65.5043 14.2619 70.4876 20.4091 70.4876Z" stroke="#6C7072" stroke-linecap="round" stroke-linejoin="round"/>
<path d="M22.6528 68.9439C27.9476 67.7079 31.2378 62.4136 30.0018 57.1188C28.7658 51.824 23.4715 48.5337 18.1767 49.7698C12.8819 51.0058 9.5916 56.3001 10.8276 61.5949C12.0637 66.8897 17.358 70.18 22.6528 68.9439Z" stroke="#6C7072" stroke-linecap="round" stroke-linejoin="round"/>
<path d="M20.4092 60.2978C20.9286 60.2978 21.3496 59.8768 21.3496 59.3574C21.3496 58.838 20.9286 58.417 20.4092 58.417C19.8898 58.417 19.4688 58.838 19.4688 59.3574C19.4688 59.8768 19.8898 60.2978 20.4092 60.2978Z" fill="#6C7072" stroke="#6C7072" stroke-linecap="round" stroke-linejoin="round"/>
<path d="M23.8354 61.0344L20.4092 59.3574L14.6976 65.6017" stroke="#6C7072" stroke-linecap="round" stroke-linejoin="round"/>
<path d="M120.548 17.3545H41.161C40.0568 17.3545 39.1617 18.2496 39.1617 19.3537V138.824C39.1617 139.928 40.0568 140.823 41.161 140.823H120.548C121.652 140.823 122.547 139.928 122.547 138.824V19.3537C122.547 18.2496 121.652 17.3545 120.548 17.3545Z" fill="#6C7072" stroke="#6C7072" stroke-linecap="round" stroke-linejoin="round"/>
<path d="M118.312 20.1396H43.4002V136.065H118.312V20.1396Z" fill="#FFEEE6" stroke="#6C7072" stroke-linecap="round" stroke-linejoin="round"/>
<path d="M91.3157 50.2139H97.1325" stroke="#6C7072" stroke-miterlimit="10"/>
<path d="M50.9729 50.2139H86.8109" stroke="#6C7072" stroke-miterlimit="10"/>
<path d="M82.6842 54.7188H97.1325" stroke="#6C7072" stroke-miterlimit="10"/>
<path d="M60.5416 54.7188H78.745" stroke="#6C7072" stroke-miterlimit="10"/>
<path d="M50.9729 54.7188H57.1646" stroke="#6C7072" stroke-miterlimit="10"/>
<path d="M68.9856 59.2197H97.1325" stroke="#6C7072" stroke-miterlimit="10"/>
<path d="M50.9729 59.2197H62.7939" stroke="#6C7072" stroke-miterlimit="10"/>
<path d="M109.941 59.0891C112.563 58.4659 114.183 55.8353 113.56 53.2133C112.937 50.5914 110.306 48.9711 107.684 49.5943C105.062 50.2175 103.442 52.8481 104.065 55.4701C104.688 58.092 107.319 59.7123 109.941 59.0891Z" stroke="#6C7072" stroke-miterlimit="10"/>
<path d="M56.7897 70.291H50.9729" stroke="#6C7072" stroke-miterlimit="10"/>
<path d="M97.1325 70.291H61.2946" stroke="#6C7072" stroke-miterlimit="10"/>
<path d="M65.4212 74.7959H50.9729" stroke="#6C7072" stroke-miterlimit="10"/>
<path d="M87.5639 74.7959H69.3605" stroke="#6C7072" stroke-miterlimit="10"/>
<path d="M97.1325 74.7959H90.9409" stroke="#6C7072" stroke-miterlimit="10"/>
<path d="M79.1198 79.2979H50.9729" stroke="#6C7072" stroke-miterlimit="10"/>
<path d="M97.1326 79.2979H85.3115" stroke="#6C7072" stroke-miterlimit="10"/>
<path d="M109.94 79.1624C112.562 78.5392 114.182 75.9085 113.559 73.2866C112.936 70.6647 110.305 69.0443 107.683 69.6675C105.061 70.2907 103.441 72.9214 104.064 75.5433C104.687 78.1652 107.318 79.7856 109.94 79.1624Z" stroke="#6C7072" stroke-miterlimit="10"/>
<path d="M91.3157 90.3691H97.1325" stroke="#6C7072" stroke-miterlimit="10"/>
<path d="M50.9729 90.3691H86.8109" stroke="#6C7072" stroke-miterlimit="10"/>
<path d="M82.6842 94.874H97.1325" stroke="#6C7072" stroke-miterlimit="10"/>
<path d="M60.5416 94.874H78.745" stroke="#6C7072" stroke-miterlimit="10"/>
<path d="M50.9729 94.874H57.1646" stroke="#6C7072" stroke-miterlimit="10"/>
<path d="M68.9856 99.375H97.1325" stroke="#6C7072" stroke-miterlimit="10"/>
<path d="M50.9729 99.375H62.7939" stroke="#6C7072" stroke-miterlimit="10"/>
<path d="M112.261 97.9446C114.166 96.039 114.166 92.9493 112.261 91.0437C110.355 89.1381 107.265 89.1381 105.36 91.0437C103.454 92.9493 103.454 96.039 105.36 97.9446C107.265 99.8502 110.355 99.8502 112.261 97.9446Z" stroke="#6C7072" stroke-miterlimit="10"/>
<path d="M87.1627 7.63146C86.9936 7.63146 86.8313 7.56425 86.7117 7.44462C86.5921 7.32499 86.5248 7.16274 86.5248 6.99355V3.40943C86.5248 3.23152 86.4898 3.05536 86.4217 2.89099C86.3536 2.72663 86.2539 2.57728 86.1281 2.45148C86.0023 2.32569 85.8529 2.2259 85.6885 2.15781C85.5242 2.08973 85.348 2.05469 85.1701 2.05469H79.3928C79.2146 2.05426 79.0381 2.08898 78.8733 2.15687C78.7086 2.22476 78.5588 2.32448 78.4327 2.45032C78.3065 2.57616 78.2065 2.72565 78.1382 2.89023C78.0699 3.05481 78.0347 3.23124 78.0347 3.40943V6.99355C78.0352 7.07717 78.0191 7.16005 77.9874 7.23742C77.9557 7.3148 77.909 7.38515 77.85 7.44442C77.7911 7.5037 77.7209 7.55074 77.6437 7.58284C77.5665 7.61494 77.4837 7.63146 77.4001 7.63146C77.3165 7.63103 77.2336 7.64712 77.1562 7.67882C77.0789 7.71052 77.0085 7.7572 76.9492 7.81617C76.89 7.87514 76.8429 7.94525 76.8108 8.02246C76.7787 8.09967 76.7622 8.18246 76.7622 8.26608V17.9761H87.7974V8.26608C87.7974 8.09777 87.7305 7.93635 87.6115 7.81734C87.4925 7.69832 87.3311 7.63146 87.1627 7.63146ZM82.2798 7.30264C81.9281 7.30199 81.5845 7.19711 81.2924 7.00124C81.0003 6.80538 80.7728 6.52733 80.6386 6.20222C80.5045 5.87711 80.4697 5.51953 80.5388 5.17467C80.6078 4.82981 80.7774 4.51315 81.0264 4.26469C81.2753 4.01624 81.5923 3.84714 81.9372 3.77877C82.2822 3.71039 82.6397 3.74581 82.9646 3.88055C83.2895 4.01529 83.5671 4.2433 83.7624 4.53576C83.9577 4.82823 84.062 5.17204 84.062 5.52373C84.0602 5.99496 83.8716 6.44624 83.5375 6.77852C83.2033 7.11081 82.751 7.29694 82.2798 7.29607V7.30264Z" fill="#6C7072" stroke="#6C7072" stroke-linecap="round" stroke-linejoin="round"/>
<path d="M67.894 14.8887H96.6689C97.4227 14.8895 98.1453 15.1896 98.678 15.7229C99.2107 16.2562 99.5099 16.9792 99.5099 17.733V21.0047H65.0497V17.733C65.0497 16.9786 65.3493 16.2552 65.8828 15.7217C66.4162 15.1883 67.1396 14.8887 67.894 14.8887Z" fill="#FFEEE6" stroke="#6C7072" stroke-linecap="round" stroke-linejoin="round"/>
<path d="M65.9046 15.9475H98.6583C98.3545 15.6138 97.9844 15.3472 97.5716 15.1648C97.1588 14.9825 96.7124 14.8885 96.2612 14.8887H68.3116C67.8586 14.8867 67.4102 14.9799 66.9955 15.1623C66.5809 15.3447 66.2092 15.6122 65.9046 15.9475Z" fill="#6C7072" stroke="#6C7072" stroke-linecap="round" stroke-linejoin="round"/>
<path d="M99.5099 20.9746H65.0497V22.9837H99.5099V20.9746Z" fill="#FFEEE6" stroke="#6C7072" stroke-linecap="round" stroke-linejoin="round"/>
<path d="M106.951 73.612L108.276 75.9664L113.287 71.1064" stroke="#198155" stroke-miterlimit="10" stroke-linecap="round"/>
<path d="M106.951 53.321L108.276 55.6787L113.287 50.8154" stroke="#198155" stroke-miterlimit="10" stroke-linecap="round"/>
<path d="M91.3157 30.3662H97.1325" stroke="#6C7072" stroke-miterlimit="10"/>
<path d="M50.9729 30.3662H86.8109" stroke="#6C7072" stroke-miterlimit="10"/>
<path d="M82.6842 34.8672H97.1325" stroke="#6C7072" stroke-miterlimit="10"/>
<path d="M60.5416 34.8672H78.745" stroke="#6C7072" stroke-miterlimit="10"/>
<path d="M50.9729 34.8672H57.1646" stroke="#6C7072" stroke-miterlimit="10"/>
<path d="M68.9856 39.3721H97.1325" stroke="#6C7072" stroke-miterlimit="10"/>
<path d="M50.9729 39.3721H62.7939" stroke="#6C7072" stroke-miterlimit="10"/>
<path d="M112.263 37.9407C114.168 36.035 114.168 32.9454 112.263 31.0398C110.357 29.1341 107.268 29.1341 105.362 31.0398C103.456 32.9454 103.456 36.0351 105.362 37.9407C107.268 39.8463 110.357 39.8463 112.263 37.9407Z" stroke="#6C7072" stroke-miterlimit="10"/>
<path d="M106.951 33.4734L108.276 35.831L113.287 30.9678" stroke="#198155" stroke-miterlimit="10" stroke-linecap="round"/>
<path d="M106.251 92.7566L107.576 95.1142L112.584 90.251" stroke="#198155" stroke-miterlimit="10" stroke-linecap="round"/>
</svg>
