<svg width="148" height="151" viewBox="0 0 148 151" fill="none" xmlns="http://www.w3.org/2000/svg">
<path d="M107.676 96.2754H131.023V78.266H107.676V96.2754Z" fill="#CDCFD0"/>
<path d="M109.344 94.7012H112.158V91.5219H109.344V94.7012Z" fill="white"/>
<path d="M123.902 78.3105H121.25V82.1522H123.902V78.3105Z" fill="#FAFAFA"/>
<path d="M123.902 92.3789H121.25V96.2205H123.902V92.3789Z" fill="#FAFAFA"/>
<path d="M113.502 96.3979C113.46 96.3979 113.428 92.4367 113.428 87.5515C113.428 82.6663 113.46 78.7051 113.502 78.7051C113.544 78.7051 113.576 82.6663 113.576 87.5515C113.576 92.4367 113.544 96.3979 113.502 96.3979Z" fill="#404446"/>
<path d="M98.1547 127.286H138.438V96.2139H98.1547V127.286Z" fill="#CDCFD0"/>
<path d="M101.033 124.575H105.886V119.089H101.033V124.575Z" fill="white"/>
<path d="M126.148 96.2939H121.573V102.924H126.148V96.2939Z" fill="#FAFAFA"/>
<path d="M126.148 120.562H121.573V127.192H126.148V120.562Z" fill="#FAFAFA"/>
<path d="M108.21 127.499C108.139 127.499 108.08 120.665 108.08 112.236C108.08 103.806 108.139 96.9727 108.21 96.9727C108.281 96.9727 108.336 103.806 108.336 112.236C108.336 120.665 108.281 127.499 108.21 127.499Z" fill="#404446"/>
<path d="M137.159 31.5879L139.317 35.9594L144.141 36.6605L140.652 40.066L141.476 44.8704L137.159 42.6023L132.842 44.8704L133.666 40.066L130.177 36.6605L135.001 35.9594L137.159 31.5879Z" fill="#CDCFD0"/>
<path d="M8.66006 88.0518L10.0203 90.8078L13.0606 91.2472L10.8603 93.3926L11.3805 96.4232L8.66006 94.9919L5.93958 96.4232L6.45977 93.3926L4.25948 91.2472L7.29982 90.8078L8.66006 88.0518Z" fill="#CDCFD0"/>
<path d="M10.3466 64.043L13.3676 70.1624L20.1203 71.1446L15.2351 75.9071L16.3886 82.634L10.3466 79.4579L4.30796 82.634L5.46141 75.9071L0.572952 71.1446L7.32568 70.1624L10.3466 64.043Z" fill="#CDCFD0"/>
<path d="M135.237 51.332L136.539 53.9717L139.45 54.395L137.343 56.4467L137.841 59.3448L135.237 57.9781L132.632 59.3448L133.13 56.4467L131.023 54.395L133.935 53.9717L135.237 51.332Z" fill="#CDCFD0"/>
<path d="M92.5166 8.60254L93.8187 11.239L96.7298 11.6623L94.6232 13.7172L95.1208 16.6153L92.5166 15.2454L89.9125 16.6153L90.41 13.7172L88.3035 11.6623L91.2145 11.239L92.5166 8.60254Z" fill="#CDCFD0"/>
<path d="M122.297 36.8223L123.15 38.5476L125.056 38.8255L123.676 40.1696L124.003 42.0661L122.297 41.1711L120.594 42.0661L120.92 40.1696L119.541 38.8255L121.447 38.5476L122.297 36.8223Z" fill="#CDCFD0"/>
<path d="M43.687 123.961L45.3477 127.321L49.0569 127.861L46.3719 130.478L47.0084 134.174L43.687 132.429L40.3688 134.174L41.0021 130.478L38.3171 127.861L42.0295 127.321L43.687 123.961Z" fill="#CDCFD0"/>
<path d="M48.0681 120.617L48.7531 122.007L50.2878 122.229L49.1763 123.312L49.438 124.84L48.0681 124.116L46.6982 124.84L46.9599 123.312L45.8484 122.229L47.3831 122.007L48.0681 120.617Z" fill="#CDCFD0"/>
<path d="M109.344 107.746L110.804 110.702L114.067 111.177L111.705 113.478L112.264 116.728L109.344 115.193L106.426 116.728L106.985 113.478L104.623 111.177L107.886 110.702L109.344 107.746Z" fill="#CC0000"/>
<path d="M116.306 105.125L116.995 106.518L118.529 106.74L117.418 107.826L117.679 109.358L116.306 108.634L114.93 109.358L115.195 107.826L114.08 106.74L115.618 106.518L116.306 105.125Z" fill="#CC0000"/>
<path d="M107.182 28.1793L108.332 24.6059C107.236 22.3983 106.903 19.8894 107.386 17.4724C107.868 15.0553 109.139 12.8666 110.999 11.2492C112.859 9.63172 115.202 8.6769 117.663 8.53429C120.124 8.39168 122.562 9.06935 124.596 10.4611C126.63 11.8529 128.145 13.8802 128.904 16.2253C129.663 18.5704 129.622 21.1009 128.788 23.4204C127.954 25.7398 126.374 27.7171 124.296 29.0425C122.218 30.368 119.759 30.9666 117.305 30.7447C114.909 30.5816 112.643 29.6006 110.885 27.9661L107.182 28.1793Z" fill="#E3E5E6"/>
<path d="M107.182 28.1792L107.428 28.1598L108.142 28.1081L110.885 27.9207C112.245 29.1783 113.919 30.0446 115.731 30.428C116.291 30.5523 116.859 30.6333 117.431 30.6703L118.335 30.7058C118.639 30.7058 118.953 30.6703 119.266 30.6541C122.1 30.3969 124.727 29.0583 126.6 26.9159C127.656 25.7259 128.44 24.3201 128.897 22.7964C129.366 21.1682 129.461 19.4552 129.175 17.7852C129.104 17.3559 129.005 16.9317 128.878 16.5154C128.821 16.3046 128.751 16.0974 128.668 15.8951C128.587 15.6883 128.516 15.4815 128.429 15.278C128.069 14.4562 127.614 13.6797 127.072 12.9646C126.802 12.6081 126.51 12.2692 126.196 11.9501C126.044 11.7873 125.883 11.6341 125.712 11.4913C125.547 11.3459 125.389 11.1875 125.214 11.0551L124.684 10.6609L124.419 10.467L124.135 10.299L123.576 9.97593C123.385 9.86931 123.185 9.78853 122.991 9.6916C121.506 8.98886 119.883 8.62812 118.24 8.63595C116.597 8.64378 114.977 9.01997 113.499 9.73684C110.937 10.967 108.948 13.1366 107.945 15.7949C107.89 15.9435 107.838 16.0922 107.786 16.2376C107.728 16.381 107.681 16.5291 107.647 16.6802C107.573 16.9774 107.502 17.2715 107.431 17.559C107.333 18.1225 107.266 18.6909 107.231 19.2617C107.158 21.1083 107.547 22.9438 108.361 24.6025L107.495 27.2455L107.266 27.9304C107.214 28.0855 107.185 28.1663 107.185 28.1663C107.185 28.1663 107.205 28.092 107.253 27.9401L107.46 27.2616L108.29 24.5831V24.609C107.454 22.9472 107.05 21.1016 107.114 19.2424C107.145 18.6651 107.208 18.0901 107.305 17.5202C107.376 17.2295 107.45 16.9322 107.521 16.6317C107.556 16.479 107.601 16.3289 107.657 16.1826C107.712 16.034 107.764 15.8854 107.819 15.7335C108.358 14.2841 109.193 12.9626 110.27 11.8525C111.346 10.7424 112.642 9.86791 114.074 9.28448C115.507 8.70105 117.045 8.42133 118.591 8.46305C120.137 8.50477 121.657 8.867 123.056 9.52682C123.253 9.62052 123.456 9.70453 123.65 9.81438L124.219 10.1536L124.503 10.3249L124.775 10.522L125.311 10.9194C125.489 11.0583 125.65 11.2166 125.818 11.362C125.991 11.5079 126.154 11.6632 126.309 11.8273C126.627 12.153 126.924 12.4983 127.198 12.8612C127.75 13.5804 128.215 14.3624 128.584 15.1907C128.671 15.3975 128.742 15.6107 128.823 15.8175C128.909 16.0282 128.981 16.244 129.04 16.4637C129.167 16.8874 129.267 17.3192 129.337 17.7561C129.629 19.4509 129.531 21.1899 129.053 22.8417C128.594 24.3944 127.801 25.8279 126.729 27.0419C124.827 29.2046 122.167 30.5534 119.298 30.8092C118.975 30.8092 118.652 30.8545 118.355 30.8545L117.44 30.8157C116.863 30.7753 116.289 30.6911 115.725 30.5637C113.906 30.1654 112.23 29.2784 110.878 27.9983H110.904L108.135 28.1437L107.431 28.176C107.26 28.1792 107.182 28.1792 107.182 28.1792Z" fill="#090A0A"/>
<path d="M88.0127 107.606L26.0556 121.415C25.697 121.497 25.3257 121.507 24.9632 121.445C24.6006 121.383 24.2539 121.249 23.9431 121.053C23.6322 120.856 23.3634 120.6 23.152 120.299C22.9407 119.998 22.791 119.658 22.7116 119.298L2.61817 29.0736C2.53812 28.7161 2.52939 28.3463 2.59248 27.9854C2.65557 27.6245 2.78923 27.2797 2.98582 26.9705C3.18241 26.6614 3.43805 26.3941 3.73811 26.1839C4.03817 25.9737 4.37675 25.8248 4.73445 25.7457L66.6916 11.9365C67.0492 11.8564 67.4192 11.8476 67.7803 11.9107C68.1414 11.9737 68.4865 12.1074 68.7959 12.3039C69.1053 12.5005 69.3729 12.7561 69.5834 13.0562C69.7939 13.3563 69.9432 13.6949 70.0227 14.0528L90.129 104.278C90.2091 104.635 90.2178 105.005 90.1547 105.366C90.0916 105.727 89.9579 106.072 89.7614 106.381C89.5648 106.69 89.3091 106.957 89.0091 107.167C88.709 107.378 88.3704 107.526 88.0127 107.606Z" fill="#404446"/>
<path d="M88.0126 107.606L88.2194 107.547C88.4203 107.482 88.614 107.397 88.7977 107.292C89.099 107.115 89.3652 106.884 89.5829 106.61C89.8795 106.236 90.0743 105.79 90.1483 105.318C90.1951 105.032 90.1951 104.741 90.1483 104.455C90.0966 104.155 90.0158 103.838 89.9447 103.509C89.7961 102.863 89.6216 102.126 89.4601 101.344C89.109 99.778 88.7051 97.9762 88.2485 95.9386C86.4294 87.8062 83.7994 76.039 80.5491 61.4964C78.9336 54.2267 77.1501 46.2624 75.2406 37.71C74.2885 33.4365 73.3031 29.0209 72.2842 24.463C71.7781 22.1841 71.2633 19.874 70.7398 17.5326C70.4749 16.363 70.2132 15.1837 69.945 13.9979C69.7994 13.4069 69.4593 12.882 68.9793 12.5075C68.4994 12.1331 67.9076 11.9309 67.2989 11.9333C66.9953 11.9401 66.6938 11.9834 66.4007 12.0626L65.496 12.2629L63.6769 12.67L60.0066 13.4874L52.5366 15.1546L37.1442 18.5956L4.75695 25.8071C4.07235 25.9588 3.47251 26.3685 3.08203 26.9509C2.69154 27.5333 2.54042 28.2438 2.66005 28.9347C2.95407 30.3079 3.2707 31.6842 3.57118 33.0542C4.18291 35.7897 4.78926 38.5091 5.39022 41.2124L8.94429 57.1766C11.2771 67.6417 13.5258 77.7224 15.6679 87.3506C17.8101 96.9789 19.8424 106.09 21.7486 114.656C21.9856 115.733 22.2214 116.792 22.4562 117.835C22.5758 118.358 22.6824 118.888 22.8084 119.402C22.9441 119.908 23.2222 120.364 23.6097 120.717C23.9946 121.064 24.4692 121.297 24.9796 121.389C25.2327 121.43 25.4902 121.438 25.7453 121.412C25.9974 121.379 26.2526 121.318 26.5046 121.26L29.5127 120.591L40.9277 118.051L75.3763 110.397L84.7461 108.323L87.1823 107.787L88.0126 107.606L87.1855 107.799L84.7493 108.349L75.3795 110.446L40.9374 118.145L29.5353 120.694L26.5272 121.366C26.2752 121.421 26.0232 121.486 25.7583 121.521C25.4934 121.548 25.226 121.54 24.9634 121.496C24.4289 121.403 23.932 121.159 23.5313 120.793C23.1306 120.428 22.8428 119.955 22.7018 119.431C22.5725 118.911 22.4659 118.387 22.3464 117.864C22.1116 116.815 21.8746 115.755 21.6355 114.685C19.7293 106.132 17.6905 96.9951 15.5452 87.3797C13.3998 77.7644 11.151 67.6708 8.81505 57.2057L5.26098 41.2447C4.66002 38.5436 4.05368 35.822 3.44195 33.08C3.13823 31.7101 2.82483 30.3402 2.52758 28.9541C2.4032 28.2303 2.56242 27.4864 2.97215 26.8769C3.38189 26.2674 4.01066 25.8391 4.72787 25.6811L37.1184 18.4599L52.5204 15.0415L59.9872 13.3776L63.6576 12.5601L65.4798 12.1336L66.3845 11.9333C66.6833 11.8559 66.9902 11.8147 67.2989 11.8105C67.9295 11.812 68.5417 12.0233 69.0389 12.4112C69.5362 12.7991 69.8902 13.3414 70.0452 13.9527C70.3101 15.1417 70.5751 16.3178 70.8368 17.4906C71.3645 19.8341 71.8836 22.141 72.3941 24.4113C73.4043 28.967 74.3876 33.3827 75.344 37.6583C77.247 46.2107 79.0176 54.175 80.6363 61.448C83.8673 75.9873 86.4844 87.7642 88.2937 95.8998C88.7428 97.9321 89.1435 99.7414 89.4924 101.305C89.6636 102.09 89.8155 102.811 89.9706 103.473C90.0417 103.796 90.1224 104.119 90.1709 104.42C90.2193 104.709 90.2193 105.003 90.1709 105.292C90.0972 105.773 89.899 106.227 89.5958 106.607C89.3752 106.88 89.1071 107.111 88.8042 107.289C88.6181 107.394 88.4209 107.477 88.2162 107.538L88.0126 107.606Z" fill="#090A0A"/>
<g opacity="0.3">
<path d="M29.1961 118.218L85.6476 105.314L83.8641 94.251L80.6622 88.0508L26.6598 109.262L29.1961 118.218Z" fill="#9E0000"/>
</g>
<g opacity="0.3">
<path d="M52.7662 15.2451L54.9018 18.7701L55.3154 20.6408L53.8679 20.9639L52.7662 15.2451Z" fill="#9E0000"/>
</g>
<path d="M5.8331 29.5963L25.4192 117.479L86.8109 103.799L83.3086 88.0833L67.2248 15.9131L5.8331 29.5963Z" fill="white"/>
<path d="M5.83299 29.5972L67.2214 15.8623H67.2731V15.9172C72.7205 40.3401 79.5153 70.8179 86.869 103.8V103.868H86.8043L25.4159 117.544H25.3577V117.483C13.8264 65.5869 5.9493 30.1238 5.82976 29.6004C5.9493 30.1367 13.8781 65.5902 25.4773 117.483L25.403 117.438L86.7914 103.748L86.7397 103.829C79.3957 70.8534 72.6075 40.3757 67.1697 15.9463L67.2344 15.9883L5.83299 29.5972Z" fill="#090A0A"/>
<path d="M23.1203 19.1398L50.1944 13.1079C50.7238 12.9899 51.2785 13.0871 51.7362 13.3781C52.194 13.669 52.5175 14.1299 52.6354 14.6594L54.1994 21.6794L23.1265 28.6022L21.5639 21.5885C21.5044 21.3255 21.4976 21.0533 21.5437 20.7876C21.5898 20.5219 21.688 20.268 21.8327 20.0404C21.9773 19.8128 22.1656 19.616 22.3866 19.4615C22.6075 19.3069 22.8569 19.1976 23.1203 19.1398Z" fill="#090A0A"/>
<path d="M39.8584 11.8584L31.9522 13.6193L34.3851 20.1911L40.3398 18.8631L39.8584 11.8584Z" fill="#090A0A"/>
<path d="M50.1942 13.1029C50.1942 13.1385 44.1491 14.5181 36.6759 16.1853C29.2026 17.8524 23.1316 19.1804 23.1219 19.1448C23.1122 19.1093 29.1671 17.7297 36.6468 16.0625C44.1265 14.3953 50.1748 13.0771 50.1942 13.1029Z" fill="#198155"/>
<path d="M23.5064 26.9958C23.4708 26.9958 23.1574 25.7357 22.8085 24.1654C22.4596 22.5952 22.2011 21.3125 22.2398 21.3028C22.2786 21.2931 22.5888 22.5629 22.9377 24.1364C23.2867 25.7098 23.5419 26.9958 23.5064 26.9958Z" fill="#198155"/>
<path d="M52.7176 19.7711C52.458 18.9212 52.2423 18.0584 52.0714 17.1863C51.8576 16.3339 51.6872 15.4712 51.5609 14.6016C51.82 15.4462 52.0356 16.3035 52.2071 17.1702C52.4215 18.0279 52.5919 18.896 52.7176 19.7711Z" fill="#198155"/>
<path d="M51.4866 21.3063C51.4866 21.3419 45.2799 22.7571 37.6096 24.4662C29.9393 26.1754 23.7164 27.5357 23.7003 27.4969C23.6841 27.4581 29.9037 26.0462 37.5934 24.337C45.2831 22.6278 51.4672 21.2708 51.4866 21.3063Z" fill="#198155"/>
<path d="M35.1346 46.8692C35.1346 46.9079 30.9505 47.8708 25.7647 49.0275C20.579 50.1842 16.3949 51.0856 16.3723 51.05C16.3497 51.0145 20.5726 50.0484 25.7421 48.895C30.9117 47.7415 35.1249 46.8336 35.1346 46.8692Z" fill="#090A0A"/>
<path d="M66.3815 43.351C66.3815 43.3897 55.4382 45.8614 41.923 48.8727C28.4079 51.884 17.4387 54.2975 17.4323 54.262C17.4258 54.2264 28.3724 51.7515 41.894 48.7402C55.4156 45.729 66.375 43.3154 66.3815 43.351Z" fill="#090A0A"/>
<path d="M67.0566 46.3815C67.0566 46.417 56.1101 48.8887 42.5949 51.9032C29.0798 54.9177 18.1139 57.328 18.1042 57.2892C18.0945 57.2505 29.0475 54.782 42.5659 51.7707C56.0842 48.7595 67.0469 46.3362 67.0566 46.3815Z" fill="#090A0A"/>
<path d="M67.7287 49.393C67.7287 49.4285 56.7854 51.9002 43.2703 54.9115C29.7551 57.9227 18.786 60.3395 18.7763 60.3007C18.7666 60.262 29.7196 57.7935 43.2412 54.779C56.7628 51.7645 67.7191 49.3574 67.7287 49.393Z" fill="#090A0A"/>
<path d="M68.4007 52.4135C68.4007 52.4491 57.4574 54.9208 43.9423 57.932C30.4271 60.9433 19.458 63.3568 19.4515 63.3213C19.4451 63.2858 30.3916 60.8141 43.9132 57.7996C57.4348 54.7851 68.3943 52.3748 68.4007 52.4135Z" fill="#090A0A"/>
<path d="M69.076 55.4281C69.076 55.4668 58.1294 57.9385 44.6143 60.9498C31.0991 63.961 20.1268 66.3778 20.1268 66.3423C20.1268 66.3067 31.0701 63.835 44.5884 60.8205C58.1068 57.8061 69.0663 55.3957 69.076 55.4281Z" fill="#090A0A"/>
<path d="M29.6162 76.6915C29.6031 76.6592 29.5933 76.6257 29.5871 76.5914L29.5161 76.3038C29.4547 76.0421 29.3674 75.677 29.2608 75.2214C29.0443 74.2877 28.7406 72.9759 28.3788 71.4057L28.4498 71.4509L23.151 72.6399C23.151 72.6399 23.248 72.488 23.2027 72.5591V72.5817V72.627L23.2221 72.7174L23.2641 72.8984L23.3417 73.257C23.3966 73.4961 23.4483 73.732 23.5 73.9678C23.6034 74.4331 23.7068 74.8919 23.8037 75.3378C24.0008 76.2263 24.185 77.0663 24.3562 77.8385L24.2851 77.7933L28.1138 76.9694L29.2027 76.7432L29.4934 76.6883L29.5968 76.6689C29.5968 76.6689 29.571 76.6689 29.5064 76.698L29.2317 76.7658L28.1655 77.0179L24.3271 77.9322H24.269V77.8741L23.7068 75.3765C23.6066 74.9307 23.5032 74.4719 23.3837 74.0066C23.332 73.7707 23.2771 73.5349 23.2254 73.2958C23.1963 73.1795 23.1704 73.0567 23.1446 72.9371L23.1026 72.7562L23.0832 72.6657V72.6205V72.5979V72.5817C23.038 72.6561 23.1446 72.4848 23.1349 72.501L28.4369 71.3281H28.4951V71.3863L29.3287 75.2634C29.4224 75.7158 29.4967 76.0777 29.5516 76.3361C29.5742 76.4524 29.5904 76.5429 29.6065 76.6172C29.613 76.6415 29.6162 76.6664 29.6162 76.6915Z" fill="#090A0A"/>
<path d="M69.0019 63.6292L32.0349 71.8652L32.722 74.9495L69.6891 66.7135L69.0019 63.6292Z" fill="#404446"/>
<path d="M31.6645 85.8862C31.6524 85.8525 31.6427 85.818 31.6355 85.7829C31.6161 85.7085 31.5935 85.6116 31.5644 85.4953C31.503 85.2336 31.4158 84.8717 31.3091 84.4162C31.0927 83.4792 30.7889 82.1545 30.4271 80.5971L30.4982 80.6424L25.1994 81.8314C25.1994 81.8508 25.2963 81.6795 25.2511 81.7538V81.77V81.7926V81.8378L25.2704 81.9283L25.3124 82.1092C25.3383 82.232 25.3641 82.3516 25.3932 82.4711L25.5483 83.1787C25.6517 83.6472 25.7551 84.1028 25.852 84.5486C26.0491 85.4371 26.2333 86.2772 26.4045 87.0494L26.3334 87.0042L30.1654 86.1835L31.251 85.9573L31.5418 85.8992C31.5755 85.8898 31.6102 85.8844 31.6451 85.883L31.5579 85.9089L31.28 85.9767L30.2138 86.232L26.3593 87.1205H26.3011V87.0623L25.7389 84.5648C25.6388 84.1189 25.5354 83.6601 25.4158 83.1948C25.3641 82.9622 25.3092 82.7231 25.2575 82.4873C25.2317 82.3677 25.2026 82.2482 25.1767 82.1254L25.1347 81.9445L25.1154 81.854V81.8088V81.77L25.1671 81.686L30.4658 80.5293H30.524V80.5842C30.8665 82.1771 31.1702 83.4921 31.3576 84.4614C31.4513 84.9137 31.5256 85.2756 31.5805 85.5341C31.6031 85.6504 31.6193 85.7408 31.6355 85.8152C31.6482 85.8375 31.658 85.8614 31.6645 85.8862Z" fill="#090A0A"/>
<path d="M71.0489 72.8235L34.0818 81.0596L34.769 84.1438L71.7361 75.9078L71.0489 72.8235Z" fill="#404446"/>
<path d="M33.713 95.0783C33.713 95.0783 33.713 95.0395 33.6839 94.9749C33.6548 94.9102 33.6419 94.8036 33.6128 94.6873C33.5514 94.4256 33.4642 94.0637 33.3575 93.6082C33.1411 92.6744 32.8374 91.3465 32.4755 89.7892L32.5466 89.8344L27.2349 91.0234C27.2349 91.0428 27.3318 90.8715 27.2866 90.9458V90.9685V90.9911V91.0363L27.3059 91.1268L27.3479 91.3077C27.3738 91.4305 27.3996 91.55 27.4287 91.6696L27.5838 92.3772C27.6872 92.8457 27.7906 93.3012 27.8875 93.7471L28.44 96.2479L28.3689 96.2059L32.2009 95.382L33.2865 95.1558L33.5773 95.0976C33.6116 95.0939 33.6463 95.0939 33.6806 95.0976L33.5934 95.1235L33.3155 95.1913L32.2493 95.4466L28.3948 96.3351H28.3366V96.2769C28.1654 95.508 27.9747 94.6615 27.7744 93.7794C27.6743 93.3335 27.5709 92.878 27.4513 92.4095C27.3996 92.1768 27.3447 91.941 27.293 91.7019C27.2672 91.5823 27.2381 91.4628 27.2122 91.3433L27.1735 91.1623L27.1509 91.0719V91.0234V90.9685C27.1056 91.0395 27.2122 90.8683 27.2025 90.8877L32.5046 89.7148H32.5627V89.773L33.3963 93.6502C33.49 94.1025 33.5643 94.4644 33.6193 94.7261C33.6419 94.8392 33.6613 94.9296 33.6742 95.0039C33.6905 95.0268 33.7035 95.0518 33.713 95.0783Z" fill="#090A0A"/>
<path d="M73.0996 82.0198L36.1325 90.2559L36.8197 93.3401L73.7867 85.1041L73.0996 82.0198Z" fill="#404446"/>
<path d="M24.5241 74.795L25.0799 73.9194L26.7309 74.837L28.8569 71.6318L29.6775 72.2005L26.9377 76.2392L24.5241 74.795Z" fill="#CC0000"/>
<path d="M26.5048 83.6797L27.0605 82.8041L28.7115 83.7217L30.8343 80.5166L31.6582 81.0853L28.9151 85.1207L26.5048 83.6797Z" fill="#CC0000"/>
<path d="M28.537 92.7878L29.0928 91.9155L30.7406 92.833L32.8665 89.6279L33.6872 90.1933L30.9474 94.2321L28.537 92.7878Z" fill="#CC0000"/>
<path d="M45.4576 104.216C45.4576 104.255 42.343 104.982 38.4852 105.831C34.6274 106.681 31.4934 107.356 31.4869 107.321C31.4805 107.285 34.5984 106.558 38.4561 105.705C42.3139 104.852 45.448 104.184 45.4576 104.216Z" fill="#090A0A"/>
<path d="M52.4172 102.555C51.5739 102.815 50.7176 103.031 49.8518 103.202C48.9992 103.414 48.1366 103.583 47.267 103.709C48.1095 103.45 48.9647 103.234 49.8292 103.063C51.2476 102.749 52.4108 102.52 52.4172 102.555Z" fill="#090A0A"/>
<path d="M75.4669 95.3013C75.4669 95.3369 72.6656 95.996 69.1955 96.7682C65.7255 97.5404 62.9016 98.1381 62.8952 98.1026C62.8887 98.067 65.6932 97.4111 69.1665 96.6357C72.6398 95.8603 75.4604 95.2658 75.4669 95.3013Z" fill="#090A0A"/>
<path d="M72.4685 103.806C72.4685 103.806 72.4976 103.719 72.5299 103.551C72.5726 103.302 72.5594 103.047 72.4911 102.804C72.3762 102.42 72.227 102.047 72.0452 101.69C71.7876 101.215 71.6366 100.69 71.6026 100.152C71.6102 99.8201 71.6872 99.4939 71.8285 99.194C71.9699 98.894 72.1725 98.627 72.4233 98.4101C72.7171 98.1661 73.0686 98.0015 73.4442 97.9319C73.8197 97.8624 74.2069 97.8902 74.5686 98.0127C74.9658 98.1336 75.3201 98.3657 75.5896 98.6815C75.7331 98.8517 75.8181 99.0635 75.8319 99.2857C75.8356 99.4052 75.8009 99.5227 75.7328 99.6209C75.6648 99.7192 75.567 99.7931 75.4539 99.8317C75.2426 99.9001 75.0267 99.953 74.8077 99.99L74.1615 100.123C73.7286 100.21 73.2892 100.287 72.8368 100.345C71.9607 100.472 71.0715 100.477 70.1939 100.362C69.7974 100.276 69.3834 100.343 69.034 100.549C68.7564 100.829 68.5212 101.148 68.3361 101.496C68.2236 101.667 68.0674 101.805 67.8837 101.896C67.6969 101.979 67.4858 101.988 67.2925 101.922C66.9601 101.774 66.6439 101.592 66.349 101.379C66.2122 101.288 66.0564 101.23 65.8935 101.208C65.7411 101.191 65.5876 101.229 65.4605 101.315C65.237 101.519 65.0521 101.762 64.9145 102.032C64.7675 102.263 64.5668 102.456 64.3294 102.593C64.092 102.731 63.825 102.808 63.551 102.82C63.1366 102.837 62.7317 102.693 62.4202 102.42C62.2245 102.251 62.0707 102.038 61.9711 101.799C61.9362 101.718 61.9113 101.632 61.8968 101.544C61.8968 101.544 61.9258 101.631 61.9969 101.79C62.1017 102.018 62.2575 102.219 62.4525 102.378C62.7563 102.635 63.1469 102.767 63.5446 102.746C63.8059 102.733 64.06 102.656 64.2852 102.523C64.5103 102.389 64.6996 102.203 64.8369 101.98C64.979 101.698 65.1718 101.444 65.4056 101.231C65.5527 101.129 65.7312 101.082 65.9096 101.098C66.0864 101.125 66.2559 101.187 66.4072 101.282C66.6973 101.488 67.0068 101.664 67.3313 101.809C67.4973 101.865 67.6781 101.857 67.8385 101.786C68.0029 101.705 68.1407 101.578 68.2359 101.421C68.428 101.064 68.6719 100.738 68.9597 100.452C69.1386 100.324 69.3482 100.246 69.5671 100.226C69.7819 100.203 69.9985 100.203 70.2133 100.226C71.0813 100.338 71.9606 100.333 72.8271 100.21C73.273 100.152 73.7092 100.071 74.1421 99.9868L74.7883 99.8576C74.9958 99.8192 75.2008 99.7685 75.4022 99.7057C75.4907 99.6776 75.5677 99.6214 75.6213 99.5456C75.675 99.4698 75.7024 99.3785 75.6995 99.2857C75.6848 99.0923 75.6103 98.9082 75.4862 98.759C75.2312 98.4557 74.895 98.2316 74.5169 98.1128C74.1743 97.9965 73.8076 97.9692 73.4515 98.0337C73.0954 98.0981 72.7616 98.2521 72.4814 98.4812C72.2407 98.6861 72.0456 98.9391 71.9087 99.2241C71.7718 99.509 71.6961 99.8195 71.6866 100.135C71.7157 100.662 71.8567 101.176 72.1002 101.644C72.2789 102.007 72.4228 102.385 72.5299 102.775C72.5931 103.025 72.5986 103.286 72.546 103.538C72.5308 103.63 72.5048 103.72 72.4685 103.806Z" fill="#090A0A"/>
<path d="M79.1468 99.6701C79.0924 99.692 79.0362 99.7093 78.9788 99.7217L78.4877 99.8381L76.6848 100.255C75.1663 100.61 73.0661 101.108 70.756 101.693C68.4459 102.277 66.3619 102.843 64.8595 103.256L63.076 103.748L62.5881 103.877C62.5322 103.894 62.4749 103.907 62.4169 103.916C62.4689 103.887 62.5242 103.865 62.5816 103.851L63.0598 103.699C63.4766 103.567 64.0808 103.376 64.8304 103.166C66.3328 102.727 68.4103 102.148 70.7237 101.55C73.0371 100.953 75.1372 100.481 76.6655 100.155C77.428 99.9899 78.0483 99.8607 78.478 99.7767L78.9724 99.683C79.03 99.6734 79.0884 99.6691 79.1468 99.6701Z" fill="#090A0A"/>
<path d="M52.6459 28.7755L27.5523 34.3662L28.6027 39.0809L53.6963 33.4902L52.6459 28.7755Z" fill="#404446"/>
<path d="M76.3848 105.286L84.4913 148.116L91.8999 134.426L105.942 142.668L91.0372 100.963L76.3848 105.286Z" fill="#CC0000"/>
<g opacity="0.3">
<path d="M79.1116 119.689C79.8833 119.835 80.6788 119.791 81.4296 119.56C82.1805 119.33 82.8641 118.921 83.4217 118.368C84.1616 117.605 84.6527 116.565 85.5832 116.055C86.42 115.596 87.4507 115.66 88.3716 115.916C89.2924 116.171 90.1583 116.594 91.0791 116.833C91.9877 117.065 92.9333 117.113 93.8607 116.976C94.7882 116.838 95.679 116.517 96.4813 116.032L94.1421 109.538L83.286 108.181L78.1165 114.4L79.1116 119.689Z" fill="#9E0000"/>
</g>
<path d="M91.3731 132.726C91.3279 132.726 90.1195 128.287 88.6753 122.791C87.231 117.295 86.0905 112.823 86.1422 112.813C86.1939 112.804 87.3926 117.246 88.8368 122.749C90.2811 128.251 91.4184 132.713 91.3731 132.726Z" fill="#090A0A"/>
<path d="M77.5704 107.512L69.4639 150.341L62.0553 136.655L48.0135 144.894L62.918 103.188L77.5704 107.512Z" fill="#CC0000"/>
<g opacity="0.3">
<path d="M58.4592 115.663C58.4592 115.663 60.7661 117.56 63.5157 116.687C66.2652 115.815 67.9744 115.628 69.4639 116.687C70.9533 117.747 74.9824 121.195 74.9824 121.195L75.9161 116.254L70.5042 108.823L64.8565 109.964L60.8372 110.355L59.3412 113.188L58.4592 115.663Z" fill="#9E0000"/>
</g>
<path d="M125.101 68.8504C125.101 71.923 121.176 74.5692 120.6 77.4738C120.009 80.4657 122.613 84.4107 121.473 87.1668C120.332 89.9228 115.657 90.9114 114 93.4025C112.342 95.8936 113.214 100.559 111.092 102.685C108.969 104.811 104.307 103.916 101.809 105.593C99.3115 107.27 98.3746 111.903 95.5733 113.066C92.8205 114.207 88.8755 111.603 85.8804 112.194C82.9725 112.769 80.3296 116.695 77.2569 116.695C74.1843 116.695 71.5349 112.769 68.6302 112.194C65.6384 111.603 61.6933 114.207 58.9373 113.066C56.1813 111.926 55.1959 107.25 52.7048 105.593C50.2137 103.935 45.5482 104.808 43.419 102.685C41.2898 100.562 42.188 95.9001 40.5111 93.4025C38.8342 90.905 34.201 89.968 33.0411 87.1668C31.8812 84.3655 34.5047 80.469 33.9135 77.4738C33.3383 74.566 29.4095 71.923 29.4095 68.8504C29.4095 65.7777 33.3383 63.1283 33.9135 60.2237C34.5047 57.2318 31.8973 53.2868 33.0411 50.5308C34.1849 47.7748 38.8568 46.7861 40.5111 44.2982C42.1654 41.8104 41.2962 37.1416 43.419 35.0124C45.5417 32.8832 50.204 33.7814 52.7048 32.1045C55.2056 30.4277 56.1361 25.7945 58.9373 24.6345C61.7386 23.4746 65.6351 26.0982 68.6302 25.5069C71.5381 24.9318 74.1843 21.0029 77.2569 21.0029C80.3296 21.0029 82.9758 24.9318 85.8804 25.5069C88.8723 26.0982 92.8173 23.4908 95.5733 24.6345C98.3746 25.7945 99.318 30.4503 101.809 32.1045C104.3 33.7588 108.966 32.8897 111.092 35.0124C113.218 37.1352 112.323 41.7975 114 44.2982C115.676 46.799 120.31 47.7295 121.473 50.5308C122.636 53.332 120.009 57.2286 120.6 60.2237C121.176 63.1283 125.101 65.768 125.101 68.8504Z" fill="#CC0000"/>
<path d="M66.0615 42.0301C66.0615 42.0301 66.0259 41.9881 65.9742 41.8976C65.9225 41.8072 65.8418 41.6618 65.7545 41.5034C65.5639 41.161 65.3022 40.6569 64.992 40.0301C64.3684 38.7765 63.5607 37.0124 62.782 35.0221C62.0034 33.0318 61.4056 31.1837 61.0147 29.8526C60.8208 29.1773 60.6722 28.6313 60.5785 28.2371C60.5365 28.0626 60.501 27.914 60.4751 27.7977C60.4584 27.7477 60.4497 27.6953 60.4493 27.6426C60.4743 27.6897 60.4939 27.7396 60.5074 27.7912L60.6399 28.2209C60.7659 28.6183 60.9307 29.1547 61.1278 29.8041C61.5478 31.1385 62.1649 32.9705 62.9371 34.9737C63.7093 36.9769 64.5041 38.7248 65.0986 39.9914L65.8127 41.4873L66.0033 41.8944C66.0268 41.9378 66.0462 41.9832 66.0615 42.0301Z" fill="#090A0A"/>
<path d="M70.3201 40.411C70.2635 40.2982 70.2212 40.1788 70.1941 40.0556C70.1262 39.823 70.0357 39.4837 69.9291 39.0637C69.7159 38.2269 69.4509 37.0572 69.2118 35.7584C68.9728 34.4595 68.8047 33.2738 68.7078 32.4143C68.6561 31.9846 68.6238 31.6357 68.6044 31.3933C68.5896 31.2689 68.5896 31.143 68.6044 31.0186C68.6416 31.1385 68.6665 31.2619 68.6787 31.3869L68.8338 32.3982C68.9631 33.2544 69.1569 34.4337 69.3863 35.7293C69.6157 37.0249 69.871 38.1945 70.0519 39.0378C70.1391 39.432 70.2102 39.768 70.2684 40.0394C70.2979 40.1613 70.3152 40.2857 70.3201 40.411Z" fill="#090A0A"/>
<path d="M77.8321 39.6643C77.7837 39.6643 77.6641 36.0392 77.564 31.5708C77.4638 27.1023 77.4186 23.4739 77.4638 23.4707C77.509 23.4675 77.6318 27.0926 77.732 31.5675C77.8321 36.0424 77.8774 39.6643 77.8321 39.6643Z" fill="#090A0A"/>
<path d="M85.3926 32.2178C85.4378 32.2178 84.9144 34.0433 84.2262 36.2662C83.538 38.4892 82.9338 40.2759 82.9015 40.263C82.8692 40.25 83.3797 38.4375 84.0679 36.2146C84.7561 33.9916 85.3441 32.2049 85.3926 32.2178Z" fill="#090A0A"/>
<path d="M88.4749 41.5838C88.4812 41.5303 88.4954 41.478 88.5169 41.4287L88.6623 41.0022C88.7915 40.6339 88.9854 40.104 89.2439 39.4513C89.7511 38.1589 90.4749 36.3528 91.302 34.3819C92.1291 32.4111 92.8981 30.6372 93.4635 29.3578C93.7414 28.7374 93.9708 28.2269 94.1452 27.8457L94.3359 27.4386C94.3843 27.3481 94.4102 27.2997 94.4166 27.3029C94.4048 27.3537 94.3886 27.4035 94.3682 27.4515L94.2034 27.8715L93.5734 29.4062C93.0209 30.718 92.281 32.4886 91.4571 34.4498C90.6332 36.411 89.903 38.1816 89.3537 39.4966L88.7237 41.028L88.546 41.4416C88.5282 41.4917 88.5043 41.5395 88.4749 41.5838Z" fill="#090A0A"/>
<path d="M92.5007 43.6904C92.5498 43.5762 92.6116 43.4678 92.6849 43.3673C92.8141 43.1605 93.008 42.8665 93.2471 42.5079C93.7317 41.7938 94.4296 40.8181 95.2406 39.7777C96.0515 38.7373 96.8302 37.8391 97.4053 37.1929C97.6929 36.8698 97.932 36.6146 98.1 36.4401C98.1809 36.3433 98.2731 36.2565 98.3746 36.1816C98.3121 36.2919 98.2361 36.3939 98.1484 36.4854C97.974 36.6986 97.7543 36.9603 97.5022 37.2705C96.9498 37.9361 96.1905 38.8569 95.3795 39.8973C94.5685 40.9376 93.8609 41.8972 93.3504 42.5951L92.7463 43.419C92.6741 43.5178 92.5918 43.6087 92.5007 43.6904Z" fill="#090A0A"/>
<path d="M98.3875 48.5048C98.3552 48.4725 100.914 46.0428 104.097 43.08C107.279 40.1172 109.89 37.7424 109.912 37.7747C109.935 37.807 107.389 40.24 104.203 43.2028C101.017 46.1656 98.4198 48.5403 98.3875 48.5048Z" fill="#090A0A"/>
<path d="M108.655 49.5098C108.344 49.7068 108.02 49.8838 107.686 50.0396C107.079 50.3627 106.255 50.8119 105.344 51.332C104.433 51.8522 103.593 52.2852 102.969 52.576C102.646 52.7214 102.407 52.8344 102.226 52.8991C102.137 52.9451 102.043 52.9777 101.945 52.996C102.256 52.799 102.58 52.622 102.914 52.4661C103.521 52.143 104.345 51.6939 105.256 51.1737C106.168 50.6535 107.008 50.2044 107.631 49.9298C107.954 49.7844 108.193 49.6713 108.374 49.6067C108.462 49.5593 108.557 49.5266 108.655 49.5098Z" fill="#090A0A"/>
<path d="M118.151 53.4485C118.168 53.4937 115.124 54.6052 111.366 55.9331C107.609 57.261 104.53 58.2982 104.517 58.2562C104.504 58.2142 107.541 57.0995 111.302 55.7716C115.063 54.4436 118.135 53.4065 118.151 53.4485Z" fill="#090A0A"/>
<path d="M121.176 70.7244C121.176 70.7696 117.864 70.495 113.79 70.1073C109.715 69.7196 106.413 69.3674 106.42 69.3189C106.426 69.2704 109.728 69.5515 113.806 69.9393C117.883 70.327 121.179 70.6791 121.176 70.7244Z" fill="#090A0A"/>
<path d="M118.743 86.2195C118.723 86.2615 115.631 84.8398 111.838 83.0499C108.045 81.2599 104.985 79.7705 105.005 79.7284C105.024 79.6864 108.116 81.1048 111.909 82.898C115.702 84.6912 118.762 86.1775 118.743 86.2195Z" fill="#090A0A"/>
<path d="M108.572 100.963C108.536 100.992 106.31 98.4039 103.593 95.1859C100.875 91.9679 98.7042 89.3281 98.7462 89.2991C98.7882 89.27 101.008 91.8548 103.725 95.076C106.442 98.2973 108.607 100.931 108.572 100.963Z" fill="#090A0A"/>
<path d="M100.081 102.924C99.9802 102.812 99.8904 102.691 99.8125 102.562C99.6477 102.323 99.4151 101.971 99.1372 101.535C98.575 100.659 97.8222 99.4347 97.0274 98.0616C96.2326 96.6884 95.5541 95.4219 95.0888 94.5075C94.8529 94.0455 94.6623 93.6707 94.5395 93.409C94.4665 93.2759 94.4059 93.1364 94.3586 92.9922C94.4499 93.1128 94.5299 93.2415 94.5977 93.3767C94.7528 93.661 94.9531 94.0229 95.1954 94.4526C95.6962 95.3605 96.3941 96.6141 97.1857 97.9873C97.9773 99.3604 98.714 100.591 99.2503 101.48C99.5023 101.906 99.7156 102.259 99.8803 102.536C99.9612 102.658 100.028 102.788 100.081 102.924Z" fill="#090A0A"/>
<path d="M94.8076 110.323C94.8076 110.323 94.7753 110.281 94.7236 110.19L94.5136 109.796C94.3294 109.45 94.0806 108.946 93.7834 108.32C93.1889 107.063 92.4231 105.299 91.6962 103.302C90.9692 101.305 90.4199 99.4635 90.0807 98.1323C89.903 97.4603 89.7576 96.911 89.6865 96.533C89.651 96.3585 89.6219 96.2099 89.596 96.0936C89.5832 96.0428 89.5756 95.9908 89.5734 95.9385C89.5998 95.9846 89.6184 96.0349 89.6283 96.0871L89.7511 96.5168C89.8642 96.9175 90.0128 97.4506 90.1938 98.1C90.575 99.4344 91.1404 101.27 91.8674 103.27C92.5944 105.27 93.3375 107.024 93.9062 108.294L94.5847 109.79C94.6557 109.951 94.7171 110.087 94.7688 110.197C94.787 110.237 94.8 110.279 94.8076 110.323Z" fill="#090A0A"/>
<path d="M84.126 105.124C84.0561 104.753 84.0097 104.377 83.9871 104C83.9127 103.305 83.7932 102.346 83.6187 101.295C83.4443 100.245 83.2407 99.302 83.0856 98.6202C82.9841 98.2552 82.9064 97.8839 82.853 97.5088C82.9011 97.5987 82.938 97.6942 82.9628 97.7931C83.0275 97.9805 83.1082 98.2519 83.2019 98.5912C83.3861 99.2664 83.6058 100.207 83.7835 101.27C83.9381 102.17 84.046 103.078 84.1066 103.99C84.1292 104.339 84.1422 104.636 84.1422 104.82C84.1505 104.922 84.145 105.024 84.126 105.124Z" fill="#090A0A"/>
<path d="M77.1375 114.426C77.1301 114.371 77.1301 114.316 77.1375 114.261C77.1375 114.132 77.1375 113.973 77.1375 113.786C77.1375 113.372 77.1375 112.775 77.1375 112.038C77.1634 110.562 77.2312 108.526 77.3476 106.28C77.4639 104.035 77.6093 101.999 77.7288 100.529C77.787 99.7927 77.8419 99.1982 77.8839 98.7879C77.9065 98.6005 77.9227 98.4421 77.9356 98.3161C77.9394 98.2601 77.9502 98.2047 77.9679 98.1514C77.9755 98.2071 77.9755 98.2636 77.9679 98.3194C77.9679 98.4454 77.9679 98.6037 77.9453 98.7943C77.9194 99.2305 77.8871 99.8185 77.8451 100.536C77.7579 102.032 77.6416 104.054 77.522 106.287C77.4025 108.52 77.3185 110.568 77.2635 112.041C77.2377 112.759 77.2151 113.334 77.1989 113.786C77.1989 113.977 77.1795 114.132 77.1731 114.261C77.1694 114.317 77.1575 114.373 77.1375 114.426Z" fill="#090A0A"/>
<path d="M71.4573 98.1514C71.4551 98.4298 71.4226 98.7071 71.3604 98.9785C71.2764 99.4825 71.1407 100.177 70.963 100.936C70.7853 101.696 70.5979 102.381 70.4493 102.875C70.3848 103.145 70.2906 103.408 70.1682 103.657C70.1969 103.381 70.2521 103.108 70.333 102.843L70.7982 100.904C70.9662 100.177 71.1213 99.5181 71.2441 98.9656C71.2889 98.688 71.3603 98.4153 71.4573 98.1514Z" fill="#090A0A"/>
<path d="M61.186 93.2305C60.7626 93.9303 60.2908 94.5997 59.774 95.2337C59.2999 95.9009 58.7829 96.5365 58.2264 97.1367C58.6488 96.4362 59.1206 95.7668 59.6383 95.1335C60.1103 94.4647 60.6273 93.8288 61.186 93.2305Z" fill="#090A0A"/>
<path d="M55.8002 89.599C55.8325 89.628 53.8293 91.9834 51.322 94.8558C48.8148 97.7281 46.7502 100.025 46.7147 100.003C46.6791 99.9801 48.6856 97.6182 51.1928 94.7459C53.7 91.8736 55.7646 89.5667 55.8002 89.599Z" fill="#090A0A"/>
<path d="M53.1023 85.5898C52.3099 86.354 51.4785 87.0766 50.6112 87.7546C49.2057 88.9113 48.0426 89.8224 48.0264 89.7869C48.8193 89.0243 49.6508 88.3029 50.5175 87.6254C51.3444 86.9039 52.2071 86.2246 53.1023 85.5898Z" fill="#090A0A"/>
<path d="M49.9488 79.5449C49.9682 79.5869 47.1766 80.9762 43.7098 82.6434C40.243 84.3106 37.4223 85.6321 37.3997 85.5901C37.3771 85.5481 40.1719 84.162 43.6387 82.4916C47.1056 80.8212 49.9294 79.5029 49.9488 79.5449Z" fill="#090A0A"/>
<path d="M48.6823 76.5303C48.5895 76.571 48.4917 76.5993 48.3915 76.6143C48.2008 76.6595 47.9262 76.7177 47.587 76.7791C46.9052 76.9083 45.9553 77.0505 44.902 77.1571C43.8487 77.2637 42.8891 77.3089 42.1945 77.3186C41.8488 77.3186 41.5677 77.3186 41.3738 77.3186C41.2727 77.3252 41.1713 77.3154 41.0733 77.2896C41.4439 77.2387 41.8172 77.2095 42.1912 77.2023C42.8827 77.1603 43.8358 77.0957 44.8859 76.9891C45.9359 76.8824 46.8826 76.7597 47.5676 76.666C47.9355 76.5944 48.308 76.5491 48.6823 76.5303Z" fill="#090A0A"/>
<path d="M47.6581 69.567C47.4699 69.5826 47.2808 69.5826 47.0927 69.567L45.5547 69.4895C44.2623 69.4249 42.4659 69.3667 40.4853 69.3764C38.5047 69.3861 36.7083 69.4669 35.4127 69.5444L33.878 69.6381C33.6903 69.6596 33.5013 69.6661 33.3126 69.6575C33.4961 69.6135 33.6831 69.5854 33.8715 69.5735C34.2334 69.5315 34.7568 69.4798 35.403 69.4249C36.6954 69.3183 38.4983 69.2213 40.4821 69.2084C42.4659 69.1955 44.2656 69.2762 45.5644 69.3699C46.2106 69.4184 46.7373 69.4636 47.0991 69.5024C47.2867 69.5108 47.4735 69.5324 47.6581 69.567Z" fill="#090A0A"/>
<path d="M48.2913 63.4545C48.2913 63.4998 46.188 62.9537 43.6193 62.2365C41.0507 61.5192 38.9797 60.9053 38.9926 60.8601C39.0055 60.8148 41.0959 61.3576 43.6646 62.0749C46.2332 62.7922 48.3042 63.4093 48.2913 63.4545Z" fill="#090A0A"/>
<path d="M49.6451 58.3358C49.5931 58.3327 49.542 58.3219 49.4932 58.3035L49.0635 58.1743C48.6952 58.0579 48.1621 57.877 47.5127 57.6412C45.8157 57.0181 44.1527 56.3063 42.5305 55.5087C40.9089 54.7103 39.331 53.8259 37.8036 52.8593C37.2188 52.4878 36.7503 52.1776 36.4337 51.9546L36.0718 51.6929C35.991 51.6315 35.949 51.5992 35.9522 51.5928C36.0011 51.6125 36.0477 51.6374 36.0912 51.6671L36.4724 51.8997C36.7955 52.1065 37.2737 52.4005 37.865 52.7592C39.0507 53.4764 40.7115 54.4231 42.6048 55.3439C44.4982 56.2648 46.2623 57.0143 47.5547 57.5184C48.2009 57.7672 48.721 57.9642 49.0861 58.0999L49.5029 58.2583C49.5524 58.2801 49.6 58.306 49.6451 58.3358Z" fill="#090A0A"/>
<path d="M52.6854 53.167C52.6595 53.2025 51.0246 52.0975 49.0344 50.6953C47.0441 49.2931 45.4512 48.1267 45.4803 48.0879C45.5094 48.0491 47.141 49.1574 49.1345 50.5596C51.128 51.9618 52.7112 53.1379 52.6854 53.167Z" fill="#090A0A"/>
<path d="M46.259 37.4707C46.259 37.4707 46.3042 37.4966 46.3818 37.5579L46.7049 37.8423L47.8971 38.8956L51.8098 42.3882L55.7387 45.8615L56.9277 46.9181L57.2508 47.2121C57.2898 47.2441 57.3245 47.2811 57.3542 47.3219C57.3542 47.3219 57.3089 47.2993 57.2281 47.2379L56.9051 46.9698C56.611 46.7339 56.1942 46.385 55.6805 45.952C54.6531 45.0861 53.2508 43.8745 51.7161 42.5142C50.1814 41.154 48.8082 39.9004 47.8389 38.9828C47.3478 38.524 46.9537 38.1524 46.6823 37.8875L46.3753 37.5838C46.2978 37.5127 46.2525 37.4739 46.259 37.4707Z" fill="#090A0A"/>
<path d="M56.3364 37.7646C56.3364 37.7646 56.4237 37.8357 56.5561 37.9876C56.6886 38.1394 56.8792 38.3624 57.1022 38.6338C57.5513 39.196 58.149 39.9908 58.7694 40.8955C59.3897 41.8001 59.9099 42.6466 60.2685 43.2702C60.4495 43.5933 60.5916 43.8356 60.6821 44.0133C60.738 44.1017 60.7815 44.1974 60.8113 44.2977C60.5745 43.9894 60.3586 43.6656 60.1651 43.3284C59.7807 42.721 59.2443 41.8906 58.6272 40.9859C58.0101 40.0813 57.4285 39.2832 57.0117 38.7049C56.7681 38.4052 56.5426 38.0912 56.3364 37.7646Z" fill="#090A0A"/>
<g opacity="0.2">
<path d="M43.4223 35.0157L57.4802 47.3225L60.9729 44.5277L52.8179 32.0303C52.8179 32.0303 52.1911 32.4891 50.5563 32.9543C48.9957 33.4034 44.3593 33.523 43.4223 35.0157Z" fill="#9E0000"/>
</g>
<g opacity="0.2">
<path d="M59.0696 24.6046L65.9322 41.7836L70.3199 40.4105L68.8563 25.5092C68.8563 25.5092 68.1034 25.6869 66.4266 25.4737C64.8014 25.2669 60.8628 23.7257 59.0696 24.6046Z" fill="#9E0000"/>
</g>
<g opacity="0.3">
<path d="M77.37 21.0089L77.832 39.6646L81.9418 39.8617L86.1033 25.542C85.2387 25.3703 84.4164 25.03 83.6833 24.5404C82.2617 23.6292 79.3603 20.8571 77.37 21.0089Z" fill="#9E0000"/>
</g>
<g opacity="0.2">
<path d="M95.2955 24.5342L88.4749 41.7326L92.1776 43.5064L101.564 31.9202C100.858 31.3246 100.256 30.616 99.7833 29.8233C98.898 28.392 97.373 25.1061 95.2955 24.5342Z" fill="#9E0000"/>
</g>
<g opacity="0.2">
<path d="M111.315 35.2637L98.6104 48.5107L101.441 52.3264L113.854 44.0422C113.445 43.2894 113.169 42.4719 113.037 41.6255C112.739 40.01 112.697 37.0762 111.315 35.2637Z" fill="#9E0000"/>
</g>
<g opacity="0.2">
<path d="M121.344 50.2109L104.236 57.2512L105.654 61.6227L120.539 60.0072C120.539 60.0072 120.445 59.5484 120.643 57.8716C120.83 56.2464 122.549 52.6148 121.344 50.2109Z" fill="#9E0000"/>
</g>
<g opacity="0.2">
<path d="M125.133 68.8496L106.481 69.4958L106.326 73.6088L120.542 77.7703C120.637 77.1782 120.826 76.6053 121.104 76.0741C122.164 74.0967 125.133 71.3051 125.133 68.8496Z" fill="#9E0000"/>
</g>
<g opacity="0.2">
<path d="M121.693 86.4843L104.52 79.793L102.785 83.5377L114.471 92.7879C115.086 92.1997 115.765 91.6837 116.497 91.25C117.919 90.3421 121.298 88.872 121.693 86.4843Z" fill="#9E0000"/>
</g>
<g opacity="0.2">
<path d="M96.436 86.2197L92.1841 89.7738C92.5071 90.0969 98.171 99.7381 101.664 105.69C101.709 105.65 101.757 105.614 101.806 105.58C104.103 104.042 108.194 104.659 110.5 103.137L96.436 86.2197Z" fill="#9E0000"/>
<path d="M88.6235 92.9658L82.2779 95.1306L85.2827 112.358C85.4778 112.289 85.6776 112.234 85.8804 112.193C88.8723 111.602 92.8173 114.206 95.5733 113.066C95.9507 112.904 96.3014 112.686 96.6137 112.42L88.6235 92.9658Z" fill="#9E0000"/>
<path d="M77.0372 116.688L78.0485 94.1806L72.5559 92.7881L68.4751 112.174L68.6238 112.2C71.467 112.752 74.055 116.494 77.0372 116.688Z" fill="#9E0000"/>
<path d="M63.2408 90.3584C63.2408 90.3584 55.9905 100.071 52.1974 105.298C52.3729 105.387 52.5434 105.485 52.7079 105.592C55.199 107.26 56.1392 111.903 58.9404 113.066C59.0697 113.117 59.2021 113.159 59.3346 113.198L69.4637 94.0256L63.2408 90.3584Z" fill="#9E0000"/>
<path d="M55.8001 82.54L40.3367 93.1667C40.3949 93.2442 40.4595 93.3186 40.5112 93.3993C42.1913 95.9066 41.2963 100.556 43.4191 102.682C43.615 102.874 43.8317 103.045 44.0653 103.189C49.5288 97.0309 59.3381 85.9746 59.6935 85.5901L55.8001 82.54Z" fill="#9E0000"/>
<path d="M52.2556 74.9502L33.9716 77.9033C34.2656 80.837 31.9522 84.5397 33.041 87.1633C33.1067 87.3236 33.1855 87.4781 33.2769 87.6253C39.6742 84.4396 53.0408 77.8128 53.5965 77.7773L52.2556 74.9502Z" fill="#9E0000"/>
<path d="M51.2574 64.7666L33.9749 59.7812C33.9588 59.9299 33.9394 60.0785 33.9135 60.2239C33.3384 63.1318 29.4095 65.7779 29.4095 68.8506C29.4104 69.0552 29.4277 69.2594 29.4612 69.4612H50.5562L51.2574 64.7666Z" fill="#9E0000"/>
<path d="M33.1121 50.3981C39.574 53.8585 52.1974 60.86 52.1974 60.86L55.3056 54.957L40.7081 43.9717C40.6435 44.0848 40.5821 44.2011 40.511 44.2948C38.8664 46.7471 34.3657 47.7035 33.1121 50.3981Z" fill="#9E0000"/>
</g>
<path d="M125.101 68.8502L125.082 68.6434C125.074 68.4407 125.046 68.2394 124.998 68.0424C124.81 67.2676 124.481 66.5339 124.028 65.8777C123.473 64.9859 122.633 63.9876 121.767 62.7242C121.278 62.0522 120.902 61.3046 120.655 60.511C120.445 59.5848 120.445 58.6231 120.655 57.6969C120.836 56.7114 121.13 55.6969 121.386 54.621C121.641 53.5451 121.88 52.3819 121.641 51.1929C121.505 50.5911 121.23 50.0298 120.836 49.5548C120.414 49.0712 119.932 48.6434 119.402 48.2818C118.329 47.5193 117.095 46.9119 115.915 46.1171C115.305 45.7237 114.751 45.2498 114.268 44.7084C113.793 44.1206 113.448 43.439 113.256 42.7084C112.843 41.2383 112.749 39.668 112.436 38.0978C112.299 37.2982 112.029 36.5272 111.638 35.8167C111.213 35.1014 110.568 34.5427 109.799 34.2238C109.006 33.9051 108.175 33.6879 107.328 33.5777C106.471 33.4355 105.593 33.3353 104.714 33.1802C103.813 33.0504 102.94 32.7743 102.129 32.3628C101.325 31.8792 100.643 31.2157 100.139 30.4242C99.6023 29.6553 99.1403 28.8281 98.6492 28.0107C98.1788 27.1743 97.6151 26.3939 96.9691 25.6844C96.3032 24.9667 95.395 24.5212 94.4198 24.434C93.4236 24.3971 92.4275 24.5137 91.4667 24.7797C90.4974 25.0156 89.5023 25.3031 88.4845 25.4938C87.4557 25.7362 86.3825 25.7162 85.3634 25.4356C84.3701 25.0459 83.441 24.5089 82.6074 23.8427C81.7447 23.1965 80.9047 22.5503 79.9839 21.9752C79.063 21.4001 78.0194 20.9833 76.9338 21.1061H76.7303C76.6624 21.1061 76.5978 21.1352 76.5332 21.1481C76.4007 21.1804 76.265 21.203 76.1358 21.2418C75.8755 21.3246 75.6209 21.4239 75.3733 21.5391C74.8735 21.7767 74.3937 22.0544 73.9387 22.3694C73.0211 23.0156 72.152 23.72 71.2085 24.3597C70.7388 24.6885 70.2416 24.9761 69.7223 25.2191C69.1901 25.4572 68.6204 25.6004 68.039 25.6424C66.8731 25.6499 65.7126 25.4855 64.5947 25.1545C63.4692 24.8332 62.3211 24.5966 61.1602 24.4469C60.5805 24.3899 59.9953 24.4292 59.4284 24.5632C58.8637 24.7202 58.3429 25.0055 57.9066 25.3968C57.0149 26.1755 56.3945 27.2223 55.7742 28.2498C55.1885 29.3257 54.5038 30.3446 53.729 31.2934C53.3188 31.7633 52.826 32.1543 52.2751 32.4468C51.7126 32.7127 51.1219 32.9143 50.5142 33.0478C49.2993 33.3159 48.0586 33.429 46.8341 33.6487C45.6096 33.8684 44.3592 34.2142 43.4739 35.0736C43.0466 35.5288 42.7168 36.0664 42.5046 36.6535C42.2907 37.2457 42.1338 37.857 42.0361 38.479C41.8099 39.7262 41.713 41.0057 41.3899 42.2625C41.2511 42.9004 41.0192 43.5144 40.7017 44.0848C40.3672 44.6499 39.9287 45.1465 39.4093 45.5484C38.3883 46.3691 37.2284 46.9765 36.117 47.655C35.5601 47.9901 35.0259 48.3614 34.5176 48.7665C34.012 49.1705 33.5868 49.6659 33.264 50.2268C32.9563 50.7982 32.8005 51.439 32.8117 52.0879C32.8231 52.7401 32.9 53.3896 33.0411 54.0265C33.3125 55.3189 33.7228 56.5886 33.9425 57.9036C34.0728 58.5785 34.0989 59.2693 34.0201 59.9521C33.9284 60.6331 33.7091 61.2908 33.3739 61.8907C32.6986 63.07 31.8198 64.1071 31.0411 65.2056C30.6412 65.747 30.2929 66.3246 30.0007 66.931C29.6806 67.5223 29.513 68.1842 29.513 68.8566C29.513 69.5291 29.6806 70.1909 30.0007 70.7823C30.2924 71.3889 30.6408 71.9666 31.0411 72.5076C31.8198 73.6062 32.6986 74.6433 33.3739 75.8226C33.703 76.4113 33.9219 77.0551 34.0201 77.7224C34.1021 78.3959 34.0804 79.0781 33.9554 79.745C33.739 81.0729 33.3286 82.3459 33.054 83.6383C32.9141 84.2754 32.8372 84.9247 32.8246 85.5769C32.8119 86.2266 32.9665 86.8686 33.2737 87.4412C33.594 88.0039 34.0183 88.5006 34.5241 88.9048C35.0323 89.3099 35.5666 89.6811 36.1234 90.0163C37.2349 90.6948 38.3851 91.3086 39.419 92.1228C39.9375 92.5256 40.3759 93.0221 40.7114 93.5865C41.0313 94.1546 41.2633 94.7679 41.3996 95.4055C41.7033 96.6656 41.8067 97.9451 42.0458 99.1922C42.1461 99.814 42.304 100.425 42.5175 101.018C42.7246 101.605 43.0489 102.143 43.4707 102.601C44.3656 103.47 45.6257 103.816 46.8341 104.035C48.0425 104.255 49.2993 104.359 50.5142 104.636C51.1228 104.77 51.7145 104.972 52.2783 105.237C52.8285 105.531 53.3211 105.922 53.7322 106.391C54.4993 107.341 55.1775 108.36 55.758 109.434C56.3784 110.462 56.9987 111.509 57.8905 112.287C58.3261 112.678 58.8456 112.963 59.409 113.121C59.9808 113.265 60.5727 113.313 61.1602 113.263C62.319 113.107 63.4648 112.866 64.5883 112.543C65.7068 112.209 66.8686 112.043 68.0357 112.051C68.6173 112.095 69.1868 112.24 69.7191 112.478C70.238 112.722 70.7352 113.009 71.2053 113.337C72.1488 113.984 73.0147 114.698 73.9355 115.324C74.3886 115.642 74.8673 115.92 75.3668 116.158C75.6146 116.273 75.8693 116.372 76.1293 116.455C76.2618 116.491 76.3943 116.517 76.5267 116.549L76.727 116.591H76.9274C78.0162 116.714 79.063 116.268 79.9806 115.722C80.8982 115.176 81.7415 114.488 82.6009 113.854C83.4357 113.188 84.3659 112.651 85.3602 112.261C86.3795 111.983 87.4523 111.963 88.4813 112.203C89.4991 112.397 90.4813 112.685 91.4635 112.921C92.426 113.184 93.4226 113.3 94.4198 113.266C95.3938 113.176 96.3002 112.729 96.9659 112.013C97.6099 111.3 98.1734 110.519 98.6459 109.683C99.1338 108.869 99.5959 108.042 100.132 107.27C100.64 106.479 101.322 105.816 102.126 105.331C102.937 104.919 103.81 104.644 104.71 104.517C105.593 104.359 106.468 104.258 107.324 104.119C108.173 104.004 109.003 103.781 109.796 103.457C110.564 103.137 111.208 102.579 111.634 101.864C112.023 101.153 112.292 100.382 112.429 99.5832C112.752 98.0129 112.836 96.4394 113.253 94.9693C113.443 94.239 113.788 93.558 114.264 92.9726C114.746 92.4296 115.301 91.9556 115.912 91.5639C117.092 90.7691 118.326 90.1617 119.395 89.3991C119.928 89.0383 120.411 88.6092 120.833 88.1229C121.226 87.6493 121.501 87.0889 121.634 86.488C121.747 85.9077 121.763 85.3128 121.683 84.7272C121.616 84.1657 121.515 83.6089 121.379 83.06C121.121 81.9841 120.83 80.9695 120.649 79.9841C120.439 79.0578 120.439 78.0962 120.649 77.1699C120.897 76.3769 121.273 75.6295 121.76 74.9567C122.636 73.6934 123.479 72.695 124.022 71.8033C124.475 71.1473 124.804 70.4135 124.991 69.6385C125.04 69.4416 125.068 69.2402 125.075 69.0376L125.095 68.834C125.095 68.834 125.095 68.9019 125.095 69.0376C125.088 69.241 125.063 69.4433 125.017 69.6418C124.833 70.4229 124.504 71.1627 124.048 71.8227C123.495 72.7209 122.659 73.7225 121.786 74.9858C121.301 75.6533 120.931 76.3969 120.691 77.1861C120.481 78.1025 120.481 79.0547 120.691 79.9712C120.872 80.9405 121.166 81.9647 121.428 83.0406C121.568 83.5937 121.676 84.1548 121.751 84.7207C121.831 85.3139 121.815 85.9162 121.702 86.5042C121.567 87.1187 121.288 87.6924 120.888 88.1778C120.462 88.6695 119.975 89.104 119.437 89.4702C118.358 90.2392 117.127 90.8498 115.954 91.6414C115.355 92.0306 114.812 92.499 114.339 93.034C113.872 93.6103 113.535 94.2803 113.35 94.9984C112.94 96.4524 112.849 98.0226 112.533 99.6025C112.396 100.414 112.124 101.197 111.728 101.919C111.292 102.655 110.63 103.23 109.841 103.56C109.041 103.889 108.201 104.115 107.344 104.233C106.484 104.375 105.605 104.475 104.73 104.633C103.841 104.76 102.979 105.032 102.177 105.438C101.396 105.912 100.733 106.558 100.239 107.328C99.7089 108.094 99.2469 108.917 98.7558 109.738C98.2805 110.583 97.7127 111.371 97.0628 112.09C96.3758 112.831 95.439 113.291 94.4328 113.383C93.4215 113.422 92.4101 113.306 91.4344 113.037C90.449 112.801 89.4668 112.517 88.4587 112.326C87.4522 112.091 86.4028 112.109 85.4054 112.381C84.4263 112.767 83.5104 113.297 82.6882 113.955C81.832 114.585 80.9887 115.263 80.0582 115.832C79.8158 115.961 79.5865 116.113 79.3344 116.219C79.2084 116.278 79.0857 116.339 78.9596 116.391L78.5687 116.53C78.0386 116.712 77.4755 116.778 76.9177 116.723L76.7077 116.707C76.6398 116.707 76.572 116.678 76.5009 116.665C76.3652 116.633 76.2262 116.607 76.0938 116.568C75.8253 116.485 75.563 116.384 75.3086 116.265C74.8016 116.024 74.3153 115.742 73.8547 115.421C72.9274 114.775 72.0583 114.071 71.1245 113.434C70.6607 113.113 70.1711 112.829 69.6609 112.588C69.1447 112.358 68.5927 112.219 68.0293 112.177C66.8774 112.172 65.7311 112.337 64.6271 112.665C63.4918 112.999 62.3329 113.247 61.1602 113.405C60.5611 113.464 59.9563 113.423 59.3703 113.286C58.7832 113.122 58.2416 112.826 57.7871 112.42C56.8695 111.615 56.2427 110.559 55.6223 109.528C55.0475 108.462 54.3747 107.452 53.6127 106.51C53.2157 106.055 52.7381 105.677 52.204 105.396C51.6534 105.134 51.0744 104.937 50.4786 104.808C49.2767 104.543 48.0393 104.43 46.805 104.207C46.1832 104.103 45.5722 103.943 44.9795 103.729C44.3784 103.508 43.8287 103.167 43.364 102.727C42.923 102.256 42.5852 101.698 42.3721 101.089C42.154 100.487 41.9928 99.8661 41.8907 99.2342C41.6645 97.9774 41.5676 96.6979 41.2445 95.4572C41.1104 94.8357 40.8838 94.2378 40.5725 93.6834C40.2455 93.1355 39.8179 92.6543 39.3124 92.265C38.3108 91.4605 37.1541 90.8531 36.0394 90.1713C35.4771 89.8321 34.9374 89.4565 34.4239 89.047C33.9013 88.628 33.4628 88.1138 33.1315 87.5316C32.8125 86.9361 32.6523 86.2685 32.6663 85.5931C32.674 84.9244 32.7519 84.2584 32.8989 83.606C33.1736 82.3136 33.5839 81.0212 33.7971 79.7288C33.9191 79.0779 33.9398 78.412 33.8585 77.7547C33.7606 77.1016 33.5415 76.4726 33.2123 75.9001C32.5661 74.737 31.6744 73.7063 30.8893 72.5981C30.4801 72.0459 30.1221 71.4576 29.8198 70.8404C29.4912 70.2262 29.3192 69.5403 29.3192 68.8437C29.3192 68.1471 29.4912 67.4612 29.8198 66.847C30.118 66.2316 30.4728 65.6454 30.8796 65.0958C31.6647 63.9876 32.5403 62.9569 33.1994 61.797C33.5282 61.2232 33.7474 60.5932 33.8456 59.9391C33.921 59.2815 33.8992 58.6163 33.781 57.965C33.5645 56.6726 33.1542 55.3802 32.8795 54.0879C32.7352 53.4362 32.6583 52.7714 32.6501 52.104C32.6372 51.4283 32.7986 50.7607 33.1186 50.1655C33.452 49.5857 33.8902 49.0729 34.411 48.6534C34.9237 48.2428 35.4634 47.8672 36.0265 47.529C37.1412 46.8473 38.2882 46.2366 39.2995 45.4353C39.8041 45.046 40.2305 44.5647 40.5563 44.0169C40.8661 43.461 41.0916 42.8621 41.2251 42.2399C41.5256 40.9992 41.629 39.723 41.8713 38.4661C41.9723 37.8343 42.1324 37.2134 42.3495 36.6115C42.5443 35.9955 42.8835 35.4348 43.3387 34.9763C43.7939 34.5177 44.352 34.1744 44.9666 33.9751C45.5592 33.7604 46.1703 33.6003 46.7921 33.4969C48.0263 33.2739 49.2638 33.1738 50.4657 32.8991C51.0604 32.7661 51.6389 32.569 52.191 32.3111C52.7236 32.027 53.1999 31.6482 53.5965 31.1932C54.3586 30.2518 55.0313 29.2415 55.6062 28.1755C56.2265 27.1448 56.8533 26.0883 57.7742 25.287C58.2309 24.875 58.7774 24.5752 59.3703 24.4114C59.9565 24.2751 60.561 24.2347 61.1602 24.2918C62.3257 24.4477 63.478 24.6896 64.6077 25.0156C65.7112 25.3469 66.8577 25.5124 68.0099 25.5067C68.5681 25.4622 69.1145 25.3223 69.6254 25.0931C70.1373 24.8547 70.627 24.5714 71.089 24.2466C72.026 23.6004 72.8951 22.8928 73.8224 22.2628C74.2822 21.941 74.7686 21.6589 75.2763 21.4195C75.5304 21.3011 75.7915 21.1986 76.0582 21.1126C76.1939 21.0738 76.3329 21.0512 76.4686 21.0189L76.6721 20.9736H76.8821C77.44 20.9209 78.0027 20.987 78.5331 21.1675L78.9241 21.3064C79.0501 21.3581 79.1729 21.4195 79.2989 21.4777C79.5541 21.5875 79.7835 21.7361 80.0226 21.8654C80.9564 22.434 81.7964 23.1125 82.6559 23.7426C83.4773 24.3991 84.392 24.9294 85.3699 25.3161C86.3671 25.5893 87.4168 25.6082 88.4232 25.371C89.4312 25.1836 90.4134 24.8993 91.3989 24.6634C92.3747 24.3951 93.3858 24.2774 94.3972 24.3145C95.4031 24.4069 96.3395 24.867 97.0272 25.6068C97.6779 26.3269 98.2468 27.1169 98.7235 27.9622C99.2146 28.7797 99.6734 29.6068 100.203 30.3693C100.696 31.1403 101.359 31.788 102.142 32.2626C102.942 32.6699 103.805 32.9417 104.694 33.0672C105.57 33.2255 106.449 33.3256 107.308 33.4678C108.165 33.5867 109.005 33.8125 109.806 34.1398C110.595 34.47 111.257 35.044 111.696 35.7779C112.09 36.5003 112.362 37.2831 112.5 38.0946C112.823 39.6745 112.907 41.2447 113.315 42.6987C113.502 43.416 113.839 44.0855 114.303 44.6631C114.775 45.1999 115.319 45.6696 115.919 46.0589C117.092 46.8505 118.326 47.4611 119.402 48.2301C119.939 48.5964 120.427 49.0308 120.852 49.5225C121.253 50.0069 121.533 50.5794 121.67 51.1929C121.782 51.7819 121.799 52.3854 121.718 52.9796C121.644 53.5445 121.536 54.1045 121.395 54.6565C121.137 55.7357 120.839 56.7469 120.659 57.7292C120.448 58.6456 120.448 59.5978 120.659 60.5143C120.899 61.3034 121.269 62.047 121.754 62.7146C122.623 63.9811 123.46 64.9762 124.016 65.8777C124.471 66.5382 124.8 67.2777 124.985 68.0586C125.03 68.257 125.056 68.4593 125.062 68.6628C125.101 68.7791 125.101 68.8502 125.101 68.8502Z" fill="#090A0A"/>
<path d="M77.257 98.181C93.456 98.181 106.588 85.0492 106.588 68.8503C106.588 52.6514 93.456 39.5195 77.257 39.5195C61.0581 39.5195 47.9263 52.6514 47.9263 68.8503C47.9263 85.0492 61.0581 98.181 77.257 98.181Z" fill="white"/>
<path d="M62.2555 43.6423L61.913 43.8685L60.9049 44.5147C60.4591 44.8022 59.9356 45.2126 59.3218 45.6649C58.9987 45.8975 58.7014 46.1786 58.3525 46.463L57.8258 46.9056C57.6449 47.0607 57.4736 47.2287 57.2895 47.4064C55.5025 49.0734 53.9328 50.959 52.6175 53.0186L52.0424 53.9427C51.8388 54.2496 51.6837 54.5888 51.4963 54.9119C51.3089 55.235 51.1248 55.584 50.9568 55.9394C50.7888 56.2948 50.6337 56.6599 50.4592 57.0282C50.3784 57.2124 50.288 57.3933 50.2104 57.584C50.1329 57.7746 50.065 57.9684 49.9907 58.1655C49.8453 58.5532 49.6902 58.9442 49.5481 59.3481C49.309 60.1655 49.0053 60.9926 48.8243 61.8747C47.9032 65.6911 47.7495 69.6525 48.372 73.5288C49.182 78.5205 51.2722 83.2169 54.4387 87.1598C57.6051 91.1027 61.7395 94.1575 66.4386 96.026C71.1377 97.8945 76.2409 98.5129 81.2503 97.821C86.2597 97.129 91.0042 95.1502 95.0208 92.0778C96.0348 91.2983 96.9995 90.4567 97.9092 89.5576L98.5554 88.8727C98.7751 88.6465 98.9884 88.4171 99.2016 88.1748L99.8155 87.4672C100.009 87.2217 100.2 86.9761 100.394 86.7338C103.316 82.9694 105.266 78.5428 106.071 73.8454C106.26 72.7549 106.388 71.6546 106.455 70.5498C106.487 70.0038 106.487 69.4642 106.507 68.9344C106.526 68.4045 106.468 67.8649 106.449 67.3383C106.449 67.0766 106.426 66.8116 106.416 66.5499C106.407 66.2882 106.358 66.0329 106.332 65.7745C106.268 65.2607 106.206 64.7502 106.145 64.2462C106.084 63.7422 105.951 63.2511 105.854 62.76C105.773 62.273 105.665 61.7908 105.531 61.3157L105.13 59.9167C105.068 59.6872 104.991 59.4617 104.901 59.2414C104.817 59.0185 104.733 58.7956 104.652 58.5759C104.481 58.1397 104.329 57.6938 104.145 57.2835C103.961 56.8731 103.761 56.4563 103.57 56.0525C102.165 53.1314 100.28 50.4666 97.9933 48.1689C96.2609 46.4476 94.3278 44.9408 92.2357 43.6811L91.0014 42.9735C90.8151 42.8643 90.6232 42.7651 90.4263 42.6763L89.8835 42.4178L88.9142 41.959C88.6234 41.8104 88.3359 41.7264 88.0936 41.6359L86.9692 41.2029L86.5879 41.0479L86.9756 41.1868L88.1033 41.6068C88.3488 41.7037 88.6364 41.7877 88.9304 41.9299L89.8997 42.3822L90.4457 42.6407C90.6435 42.7273 90.8366 42.8243 91.024 42.9315L92.2615 43.6359C94.3673 44.8876 96.3127 46.3914 98.0546 48.114C100.355 50.41 102.253 53.076 103.67 56.0008C103.861 56.4111 104.055 56.8214 104.252 57.2415C104.449 57.6615 104.575 58.1041 104.762 58.5339L105.014 59.1994C105.104 59.4208 105.181 59.6474 105.244 59.8779C105.379 60.3432 105.515 60.8085 105.651 61.2834C105.791 61.7603 105.904 62.2446 105.99 62.7341C106.087 63.2252 106.203 63.7034 106.287 64.2236C106.371 64.7438 106.41 65.2446 106.475 65.7615C106.504 66.02 106.546 66.2785 106.562 66.5402C106.578 66.8019 106.584 67.0669 106.594 67.3318C106.613 67.8617 106.643 68.3948 106.655 68.9473C106.668 69.4998 106.639 70.0297 106.604 70.5628C106.274 76.4772 104.152 82.1511 100.52 86.8307L99.9318 87.5674L99.3115 88.2814C99.1112 88.5237 98.8947 88.7564 98.6653 88.9825L98.0191 89.674C97.1037 90.5783 96.1325 91.4243 95.1112 92.207C91.0752 95.2923 86.3086 97.2791 81.2762 97.9738C76.2438 98.6685 71.1172 98.0475 66.3962 96.1712C61.6752 94.2949 57.5209 91.2274 54.3383 87.2677C51.1557 83.308 49.0534 78.5913 48.2363 73.5773C47.9085 71.5561 47.8001 69.5055 47.9132 67.461C47.9947 65.5753 48.2664 63.7026 48.7242 61.8715C48.9051 60.9862 49.212 60.159 49.4511 59.3351C49.5965 58.9345 49.7549 58.5403 49.9035 58.1494C49.9778 57.9555 50.0521 57.7617 50.1232 57.5678C50.1943 57.3739 50.2944 57.1962 50.3752 57.0088C50.5464 56.6405 50.6983 56.2786 50.876 55.92C51.0537 55.5614 51.2443 55.2286 51.422 54.8893C51.5997 54.5501 51.7677 54.2141 51.9713 53.9039L52.5529 52.9798C53.8751 50.917 55.4572 49.033 57.2604 47.3741C57.4446 47.2029 57.6158 47.0284 57.7967 46.8733L58.3266 46.4306C58.6756 46.1496 58.9728 45.8717 59.2959 45.6391C59.9259 45.1867 60.4429 44.7829 60.892 44.4985L61.9098 43.8523C62.1295 43.7102 62.2555 43.6423 62.2555 43.6423Z" fill="#090A0A"/>
<path d="M64.0267 68.5454L68.1915 64.9315L75.2063 72.1373L90.94 59.0332L94.2674 63.1833L74.1118 79.5928L64.0267 68.5454Z" fill="#198155"/>
</svg>
